<?xml version="1.0" standalone="no"?>
<!DOCTYPE svg PUBLIC "-//W3C//DTD SVG 20010904//EN"
 "http://www.w3.org/TR/2001/REC-SVG-20010904/DTD/svg10.dtd">
<svg version="1.0" xmlns="http://www.w3.org/2000/svg"
 width="512.000000pt" height="512.000000pt" viewBox="0 0 512.000000 512.000000"
 preserveAspectRatio="xMidYMid meet">

<g transform="translate(0.000000,512.000000) scale(0.100000,-0.100000)"
fill="#000000" stroke="none">
<path d="M1274 3970 c-12 -4 -31 -21 -43 -36 l-21 -27 0 -1348 0 -1347 25 -30
c31 -36 66 -46 111 -32 68 23 64 -73 64 1410 0 1476 4 1386 -61 1409 -37 13
-46 13 -75 1z"/>
<path d="M2774 3855 c-69 -29 -64 73 -64 -1298 l0 -1239 29 -29 c44 -44 102
-43 144 2 l27 29 0 1240 0 1240 -27 29 c-34 36 -68 44 -109 26z"/>
<path d="M4261 3666 c-52 -29 -50 16 -51 -1104 0 -1144 -3 -1086 59 -1112 42
-17 95 -5 121 27 20 26 20 33 20 1085 l0 1060 -29 29 c-33 32 -78 38 -120 15z"/>
<path d="M739 3531 l-29 -29 0 -942 0 -942 29 -29 c41 -41 101 -41 142 0 l29
29 0 942 0 942 -29 29 c-23 23 -38 29 -71 29 -33 0 -48 -6 -71 -29z"/>
<path d="M1747 3520 c-15 -12 -31 -38 -37 -58 -14 -51 -14 -1753 0 -1804 26
-93 145 -106 189 -21 16 31 16 1815 0 1846 -29 57 -103 75 -152 37z"/>
<path d="M3257 3379 c-48 -28 -47 -18 -47 -819 0 -806 -1 -793 49 -820 38 -20
89 -12 123 19 l33 29 0 771 0 770 -29 30 c-24 25 -38 31 -70 31 -23 0 -49 -5
-59 -11z"/>
<path d="M4774 3370 c-12 -4 -31 -21 -43 -36 l-21 -27 0 -748 0 -749 28 -30
c55 -62 149 -42 171 37 15 52 15 1434 0 1486 -16 59 -78 90 -135 67z"/>
<path d="M238 3121 l-33 -29 0 -532 0 -532 33 -29 c53 -48 126 -38 157 21 23
44 23 1036 0 1080 -31 59 -104 69 -157 21z"/>
<path d="M2239 3121 l-29 -29 0 -532 0 -532 29 -29 c41 -41 101 -41 142 0 l29
29 0 532 0 532 -29 29 c-23 23 -38 29 -71 29 -33 0 -48 -6 -71 -29z"/>
<path d="M3739 2941 l-29 -29 0 -352 0 -352 29 -29 c41 -41 101 -41 142 0 l29
29 0 352 0 352 -29 29 c-23 23 -38 29 -71 29 -33 0 -48 -6 -71 -29z"/>
</g>
</svg>
