<?xml version="1.0" standalone="no"?>
<!DOCTYPE svg PUBLIC "-//W3C//DTD SVG 20010904//EN"
 "http://www.w3.org/TR/2001/REC-SVG-20010904/DTD/svg10.dtd">
<svg version="1.0" xmlns="http://www.w3.org/2000/svg"
 width="512.000000pt" height="512.000000pt" viewBox="0 0 512.000000 512.000000"
 preserveAspectRatio="xMidYMid meet">

<g transform="translate(0.000000,512.000000) scale(0.100000,-0.100000)"
fill="#000000" stroke="none">
<path d="M2460 3903 c-648 -69 -1174 -661 -1238 -1392 l-7 -84 -54 -14 c-150
-38 -259 -151 -292 -303 -6 -30 -9 -154 -7 -322 3 -260 5 -276 27 -333 33 -83
133 -183 216 -215 86 -34 244 -34 330 0 83 32 182 132 216 215 23 59 24 66 24
360 0 338 -3 358 -73 449 -49 65 -96 102 -168 131 l-59 24 2 68 c4 91 27 217
64 338 136 444 473 789 875 896 112 30 337 37 457 15 536 -101 958 -617 1013
-1237 l6 -76 -38 -6 c-94 -16 -196 -86 -253 -175 -56 -87 -63 -140 -59 -450 4
-336 9 -354 117 -463 91 -91 148 -113 291 -113 87 0 115 4 165 24 83 32 182
132 216 215 24 59 24 66 24 365 l0 305 -32 67 c-43 91 -101 151 -182 189 -36
17 -73 34 -81 39 -11 5 -17 33 -23 101 -21 252 -120 542 -261 758 -102 158
-277 334 -425 429 -232 149 -533 223 -791 195z m-1082 -1649 c47 -19 98 -67
125 -119 20 -37 22 -58 25 -275 5 -336 -11 -397 -121 -460 -47 -27 -61 -30
-137 -30 -76 0 -90 3 -137 30 -39 22 -61 44 -83 83 l-30 52 0 280 c0 252 2
284 19 320 24 52 78 103 127 120 53 19 166 19 212 -1z m2565 5 c49 -13 115
-73 138 -124 17 -36 19 -71 19 -320 l0 -280 -30 -52 c-22 -39 -44 -61 -83 -83
-47 -27 -61 -30 -138 -30 -103 0 -156 23 -206 88 -48 63 -55 119 -51 395 3
225 5 245 25 282 27 50 78 99 123 119 41 18 148 21 203 5z"/>
<path d="M2061 1884 c-28 -35 -26 -69 4 -99 l24 -25 491 0 491 0 24 25 c30 30
32 64 4 99 l-20 26 -499 0 -499 0 -20 -26z"/>
</g>
</svg>
