<svg xmlns="http://www.w3.org/2000/svg" viewBox="0 0 28.87 28.87" id="apple">
  <g id="Layer_2">
    <g id="Layer_1-2">
      <rect width="28.87" height="28.87" fill="#6e6e6e" rx="6.48" ry="6.48" style="fill:#6e6e6e"></rect>
      <path d="M20.72 18c-.56 1.52-2.17 4.07-3.75 3.77-1.09-.21-1.57-.77-2.79-.54-.86.16-1.16.49-1.85.56a2.84 2.84 0 0 1-2.43-1.52 10.65 10.65 0 0 1-1.08-1.94 8 8 0 0 1-.54-4.93 3.85 3.85 0 0 1 2.54-2.75 4.59 4.59 0 0 1 3.41.38c.56.16 1-.08 1.67-.33a4 4 0 0 1 4.5 1.2c-2.31 1.65-2.23 4.49.4 5.86 0 .07-.01.07-.08.24z" style="fill:#fff;fill-rule:evenodd"></path>
      <path d="M17.39 7.08a4.17 4.17 0 0 1 0 .61 3.2 3.2 0 0 1-3 3 3.24 3.24 0 0 1 0-.52 3.46 3.46 0 0 1 2.74-3z" style="fill:#fff;fill-rule:evenodd"></path>
    </g>
  </g>
</svg>
