<svg version="1.1" id="Layer_1" xmlns:x="ns_extend;" xmlns:i="ns_ai;" xmlns:graph="ns_graphs;" xmlns:svg="http://www.w3.org/2000/svg" xmlns="http://www.w3.org/2000/svg" xmlns:xlink="http://www.w3.org/1999/xlink" x="0px" y="0px" viewBox="0 0 88 88" style="enable-background:new 0 0 88 88;" xml:space="preserve">
 <style type="text/css">
  .st0{fill:#F7931A;}
	.st1{fill:#FFFFFF;}
 </style>
 <metadata>
  <sfw xmlns="ns_sfw;">
   <slices>
   </slices>
   <sliceSourceBounds bottomLeftOrigin="true" height="88" width="88" x="-85.8" y="119.3">
   </sliceSourceBounds>
  </sfw>
 </metadata>
 <g transform="translate(-289.60744,-341.50536)">
  <g transform="matrix(0.61129216,0,0,0.61129216,170.80346,315.53734)">
   <path class="st0" d="M336.1,131.9c-9.6,38.6-48.7,62-87.2,52.4c-38.5-9.6-62-48.7-52.4-87.2c9.6-38.6,48.7-62,87.2-52.4
			C322.3,54.2,345.7,93.3,336.1,131.9z">
   </path>
   <path class="st1" d="M298,104.2c1.4-9.6-5.9-14.7-15.8-18.2l3.2-13l-7.9-2l-3.1,12.6c-2.1-0.5-4.2-1-6.3-1.5l3.2-12.7l-7.9-2
			l-3.2,13c-1.7-0.4-3.4-0.8-5-1.2l0,0l-10.9-2.7l-2.1,8.4c0,0,5.9,1.3,5.7,1.4c3.2,0.8,3.8,2.9,3.7,4.6l-3.7,14.8
			c0.2,0.1,0.5,0.1,0.8,0.3c-0.3-0.1-0.5-0.1-0.8-0.2l-5.2,20.7c-0.4,1-1.4,2.4-3.6,1.9c0.1,0.1-5.7-1.4-5.7-1.4l-3.9,9l10.3,2.6
			c1.9,0.5,3.8,1,5.6,1.5l-3.3,13.1l7.9,2l3.2-13c2.2,0.6,4.2,1.1,6.3,1.6l-3.2,12.9l7.9,2l3.3-13.1c13.5,2.5,23.6,1.5,27.9-10.7
			c3.4-9.8-0.2-15.5-7.3-19.2C293.1,114.6,297,111.2,298,104.2L298,104.2z M280,129.5c-2.4,9.8-19,4.5-24.3,3.2l4.3-17.4
			C265.4,116.6,282.5,119.3,280,129.5z M282.4,104.1c-2.2,8.9-16,4.4-20.4,3.3l3.9-15.8C270.4,92.7,284.8,94.8,282.4,104.1z">
   </path>
  </g>
 </g>
</svg>