<?xml version="1.0" encoding="UTF-8"?> <svg xmlns="http://www.w3.org/2000/svg" xmlns:xlink="http://www.w3.org/1999/xlink" version="1.1" id="Layer_2" x="0px" y="0px" viewBox="0 0 1270 630" style="enable-background:new 0 0 1270 630;" xml:space="preserve"> <style type="text/css"> .st0{fill-rule:evenodd;clip-rule:evenodd;fill:url(#SVGID_1_);} .st1{fill:none;stroke:#1A1B1D;} .st2{fill:#90CB62;stroke:#1A1B1D;stroke-linejoin:round;} .st3{fill:#FFC450;stroke:#1A1B1D;stroke-linejoin:round;} .st4{fill:#5CC3C9;stroke:#1A1B1D;stroke-linejoin:round;} .st5{fill:none;stroke:#1A1B1D;stroke-linejoin:round;} .st6{opacity:0.35;fill:#4C99A4;enable-background:new ;} .st7{fill:#FFFFFF;stroke:#1A1B1D;stroke-linejoin:round;} .st8{opacity:0.3;fill-rule:evenodd;clip-rule:evenodd;fill:#4C99A4;enable-background:new ;} .st9{fill:#0A6191;stroke:#0A6191;stroke-linejoin:round;} .st10{fill:#5CC3C9;stroke:#0A6191;stroke-linejoin:round;} .st11{fill:#0A6191;stroke:#1A1B1D;stroke-linejoin:round;} .st12{fill:#4C99A4;stroke:#1A1B1D;stroke-linejoin:round;} .st13{fill-rule:evenodd;clip-rule:evenodd;fill:#4C99A4;} .st14{fill:#1A1B1D;} .st15{fill:#8FE3E8;stroke:#1A1B1D;stroke-linejoin:round;} .st16{fill-rule:evenodd;clip-rule:evenodd;fill:#FFC450;} .st17{fill:#90CB62;stroke:#1A1B1D;} .st18{fill:#FFFFFF;stroke:#1A1B1D;} .st19{fill:none;stroke:#1A1B1D;stroke-linecap:round;} .st20{opacity:0.2;fill:#4C99A4;enable-background:new ;} .st21{fill:#5CC3C9;stroke:#FFFFFF;stroke-linejoin:round;} .st22{fill:#4C99A4;stroke:#1A1B1D;} .st23{fill:#FFC450;stroke:#1A1B1D;} .st24{fill-rule:evenodd;clip-rule:evenodd;fill:#1A1B1D;} .st25{fill:#E7FAFB;stroke:#0A6191;stroke-linejoin:round;} .st26{fill:#4C99A4;stroke:#0A6191;stroke-linejoin:round;} .st27{fill:#FFC450;} .st28{opacity:0.5;fill-rule:evenodd;clip-rule:evenodd;fill:#DA9105;enable-background:new ;} .st29{fill:#90CB62;} .st30{fill:#E7FAFB;stroke:#1A1B1D;stroke-linejoin:round;} .st31{fill:#8FE3E8;fill-opacity:0.8;stroke:#E7FAFB;stroke-linejoin:round;} .st32{fill:#C3F8FB;stroke:#E7FAFB;stroke-linejoin:round;} .st33{fill:none;stroke:#8FE3E8;stroke-linejoin:round;} .st34{opacity:0.5;fill:#FFFFFF;enable-background:new ;} .st35{fill:#F5F7FA;filter:url(#Adobe_OpacityMaskFilter);} .st36{mask:url(#mask0_2003_2265_00000155136742810841932550000004857680983934189485_);} .st37{fill:none;stroke:#FFFFFF;stroke-linejoin:round;} .st38{opacity:0.5;fill:#51A6B1;enable-background:new ;} .st39{fill-rule:evenodd;clip-rule:evenodd;fill:#0A6191;} .st40{fill:#0A6191;} .st41{fill:#8FE3E8;stroke:#0A6191;stroke-linejoin:round;} .st42{fill:#8FE3E8;stroke:#0A6191;} .st43{fill-rule:evenodd;clip-rule:evenodd;fill:#E7FAFB;} .st44{fill:#C3F8FB;stroke:#C3F8FB;stroke-linejoin:round;} .st45{fill:#E7FAFB;stroke:#C3F8FB;stroke-linejoin:round;} .st46{opacity:0.1;fill-rule:evenodd;clip-rule:evenodd;fill:#4C99A4;enable-background:new ;} .st47{opacity:0.1;fill:#4C99A4;enable-background:new ;} .st48{fill:#C3F8FB;} .st49{opacity:0.5;fill-rule:evenodd;clip-rule:evenodd;fill:#4C99A4;enable-background:new ;} .st50{fill:#BCF194;} .st51{opacity:0.5;fill-rule:evenodd;clip-rule:evenodd;fill:#5B992B;enable-background:new ;} .st52{fill:none;stroke:#1A1B1D;stroke-width:1;stroke-miterlimit:4;} .st53{fill:#5DB3BF;} .st54{opacity:0.35;fill-rule:evenodd;clip-rule:evenodd;fill:#0A6191;enable-background:new ;} .st55{fill-rule:evenodd;clip-rule:evenodd;fill:#FFFFFF;} .st56{fill:#8FE3E8;stroke:#1A1B1D;} .st57{fill:#F5F7FA;filter:url(#Adobe_OpacityMaskFilter_00000120521683205892900170000007119016464147473061_);stroke:#000000;} .st58{mask:url(#mask1_2003_2265_00000053527605298272262710000015955409302863150484_);} .st59{fill:none;stroke:#E7FAFB;} .st60{fill:none;stroke:#FFFFFF;} .st61{fill:#FFFFFF;} .st62{fill-rule:evenodd;clip-rule:evenodd;fill:#018BFF;fill-opacity:0.2;} .st63{fill:#8FE3E8;stroke:#8FE3E8;stroke-linejoin:round;} .st64{fill:#FFFFFF;stroke:#0A6191;stroke-linejoin:round;} .st65{fill:#FFFFFF;stroke:#8FE3E8;stroke-linejoin:round;} .st66{fill:#FFB422;stroke:#1A1B1D;} .st67{fill:#80BB53;stroke:#1A1B1D;} </style> <g> <radialGradient id="SVGID_1_" cx="-85.0134" cy="589.4301" r="1" gradientTransform="matrix(-377.2537 -323.2997 -560.0197 653.4787 298975.9688 -412177.5625)" gradientUnits="userSpaceOnUse"> <stop offset="0" style="stop-color:#7AD1FF"></stop> <stop offset="1" style="stop-color:#7AD1FF;stop-opacity:0"></stop> </radialGradient> <path class="st0" d="M-115.5,437.5L-232,504.7l0.9,0.5l116.5-67.3L1.4,505l-116.5,67.3l0.9,0.5L2.3,505.5l116.1,67L1.9,639.7 l0.9,0.5L119.2,573l116.1,67l-116.5,67.3l0.9,0.5l116.5-67.3l116.1,67l-116.5,67.3l0.9,0.5L353.1,708l116.1,67l-116.5,67.3l0.9,0.5 L470,775.5l116.1,67l-116.5,67.3l0.9,0.5L587,843L703,910l-116.5,67.3l0.9,0.5l116.5-67.3l116.1,67l-116.5,67.2l0.9,0.5L820.8,978 l116.1,67l-116.5,67.2l0.9,0.5l116.5-67.2l116.5,67.2l0.9-0.5L938.6,1045l116.1-67l116.5,67.2l0.9-0.5l-116.5-67.2l116.1-67 l116.5,67.3l0.9-0.5L1172.5,910l116.1-67l116.5,67.3l0.9-0.5l-116.5-67.3l116.1-67l116.5,67.3l0.9-0.5L1406.4,775l116.1-67 l116.5,67.3l0.9-0.5l-116.5-67.3l116.1-67l116.5,67.3l0.9-0.5L1640.2,640l116.1-67l116.5,67.3l0.9-0.5l-116.5-67.3l116.1-67 l116.5,67.3l0.9-0.5L1874.1,505l116.1-67l116.5,67.3l0.9-0.5L1991,437.5l116.5-67.3l-0.9-0.5L1990.2,437l-116.1-67l116.5-67.3 l-0.9-0.5l-116.5,67.3l-116.1-67l116.5-67.3l-0.9-0.5L1756.3,302l-116.1-67l116.5-67.3l-0.9-0.5l-116.5,67.3l-116.1-67l116.5-67.3 l-0.9-0.5L1522.4,167l-116.1-67l116.5-67.3l-0.9-0.5l-116.5,67.3l-116.1-67l116.5-67.3l-0.9-0.5L1288.6,32l-116.1-67l116.5-67.3 l-0.9-0.5l-116.5,67.3l-116.1-67l116.5-67.3l-0.9-0.5l-116.5,67.3l-116.1-67l116.5-67.3l-0.9-0.5l-116.5,67.3l-116.5-67.3l-0.9,0.5 l116.5,67.3l-116.1,67l-116.5-67.3l-0.9,0.5L820-102.6l-116.1,67l-116.5-67.3l-0.9,0.5L703-35L587,32L470.5-35.3l-0.9,0.5 l116.5,67.3L470,99.5L353.5,32.2l-0.9,0.5L469.2,100l-116.1,67L236.6,99.7l-0.9,0.5l116.5,67.3l-116.1,67l-116.5-67.3l-0.9,0.5 L235.3,235l-116.1,67L2.8,234.7l-0.9,0.5l116.5,67.3l-116.1,67l-116.5-67.3l-0.9,0.5L1.4,370l-116.1,67l-116.5-67.3l-0.9,0.5 L-115.5,437.5z M-113.8,437.5l116.1,67l116.1-67l-116.1-67L-113.8,437.5z M3.2,370l116.1,67l116.1-67l-116.1-67L3.2,370z M120.1,302.5l116.1,67l116.1-67l-116.1-67L120.1,302.5z M237,235l116.1,67l116.1-67l-116.1-67L237,235z M354,167.5l116.1,67 l116.1-67l-116.1-67L354,167.5z M470.9,100L587,167L703,100L587,33L470.9,100z M587.8,32.5l116.1,67l116.1-67l-116.1-67L587.8,32.5 z M704.7-35l116.1,67l116.1-67l-116.1-67L704.7-35z M821.7-102.6l116.1,67l116.1-67l-116.1-67L821.7-102.6z M1873.2,370.5l116.1,67 l-116.1,67l-116.1-67L1873.2,370.5z M938.6-35.1l116.1-67l116.1,67l-116.1,67L938.6-35.1z M821.7,32.5l116.1-67l116.1,67l-116.1,67 L821.7,32.5z M704.7,100l116.1-67l116.1,67l-116.1,67L704.7,100z M587.8,167.5l116.1-67l116.1,67l-116.1,67L587.8,167.5z M470.9,235L587,168L703,235L587,302L470.9,235z M354,302.5l116.1-67l116.1,67l-116.1,67L354,302.5z M237,370l116.1-67l116.1,67 l-116.1,67L237,370z M120.1,437.5l116.1-67l116.1,67l-116.1,67L120.1,437.5z M3.2,505l116.1-67l116.1,67l-116.1,67L3.2,505z M120.1,572.5l116.1,67l116.1-67l-116.1-67L120.1,572.5z M237,505l116.1,67l116.1-67l-116.1-67L237,505z M354,437.5l116.1,67 l116.1-67l-116.1-67L354,437.5z M470.9,370L587,437L703,370L587,303L470.9,370z M587.8,302.5l116.1,67l116.1-67l-116.1-67 L587.8,302.5z M704.8,235l116.1,67l116.1-67l-116.1-67L704.8,235z M821.7,167.5l116.1,67l116.1-67l-116.1-67L821.7,167.5z M938.6,100l116.1,67l116.1-67l-116.1-67L938.6,100z M1055.6,32.5l116.1,67l116.1-67l-116.1-67L1055.6,32.5z M1172.5,100l116.1-67 l116.1,67l-116.1,67L1172.5,100z M1055.6,167.5l116.1-67l116.1,67l-116.1,67L1055.6,167.5z M938.6,235l116.1-67l116.1,67l-116.1,67 L938.6,235z M821.7,302.5l116.1-67l116.1,67l-116.1,67L821.7,302.5z M704.8,370l116.1-67l116.1,67l-116.1,67L704.8,370z M587.8,437.5l116.1-67l116.1,67l-116.1,67L587.8,437.5z M470.9,505L587,438L703,505L587,572L470.9,505z M354,572.5l116.1-67 l116.1,67l-116.1,67L354,572.5z M237,640l116.1-67l116.1,67l-116.1,67L237,640z M354,707.5l116.1,67l116.1-67l-116.1-67L354,707.5z M470.9,640L587,707L703,640L587,573L470.9,640z M587.8,572.5l116.1,67l116.1-67l-116.1-67L587.8,572.5z M704.8,505l116.1,67 l116.1-67l-116.1-67L704.8,505z M821.7,437.5l116.1,67l116.1-67l-116.1-67L821.7,437.5z M938.6,370l116.1,67l116.1-67l-116.1-67 L938.6,370z M1055.6,302.5l116.1,67l116.1-67l-116.1-67L1055.6,302.5z M1172.5,235l116.1,67l116.1-67l-116.1-67L1172.5,235z M1289.4,167.5l116.1,67l116.1-67l-116.1-67L1289.4,167.5z M1406.4,235l116.1-67l116.1,67l-116.1,67L1406.4,235z M1289.4,302.5 l116.1-67l116.1,67l-116.1,67L1289.4,302.5z M1172.5,370l116.1-67l116.1,67l-116.1,67L1172.5,370z M1055.6,437.5l116.1-67l116.1,67 l-116.1,67L1055.6,437.5z M938.6,505l116.1-67l116.1,67l-116.1,67L938.6,505z M821.7,572.5l116.1-67l116.1,67l-116.1,67 L821.7,572.5z M704.8,640l116.1-67l116.1,67l-116.1,67L704.8,640z M587.8,707.5l116.1-67l116.1,67l-116.1,67L587.8,707.5z M470.9,775L587,708L703,775L587,842L470.9,775z M587.8,842.5l116.1,67l116.1-67l-116.1-67L587.8,842.5z M704.7,775l116.1,67 l116.1-67l-116.1-67L704.7,775z M821.7,707.5l116.1,67l116.1-67l-116.1-67L821.7,707.5z M938.6,640l116.1,67l116.1-67l-116.1-67 L938.6,640z M1055.6,572.5l116.1,67l116.1-67l-116.1-67L1055.6,572.5z M1172.5,505l116.1,67l116.1-67l-116.1-67L1172.5,505z M1289.4,437.5l116.1,67l116.1-67l-116.1-67L1289.4,437.5z M1406.3,370l116.1,67l116.1-67l-116.1-67L1406.3,370z M1523.3,302.5 l116.1,67l116.1-67l-116.1-67L1523.3,302.5z M1640.2,370l116.1-67l116.1,67l-116.1,67L1640.2,370z M1523.3,437.5l116.1-67l116.1,67 l-116.1,67L1523.3,437.5z M1406.3,505l116.1-67l116.1,67l-116.1,67L1406.3,505z M1289.4,572.5l116.1-67l116.1,67l-116.1,67 L1289.4,572.5z M1172.5,640l116.1-67l116.1,67l-116.1,67L1172.5,640z M1055.6,707.5l116.1-67l116.1,67l-116.1,67L1055.6,707.5z M938.6,775l116.1-67l116.1,67l-116.1,67L938.6,775z M821.7,842.5l116.1-67l116.1,67l-116.1,67L821.7,842.5z M704.7,910l116.1-67 l116.1,67l-116.1,67L704.7,910z M821.7,977.5l116.1,67l116.1-67l-116.1-67L821.7,977.5z M938.6,910l116.1,67l116.1-67l-116.1-67 L938.6,910z M1055.6,842.5l116.1,67l116.1-67l-116.1-67L1055.6,842.5z M1172.5,775l116.1,67l116.1-67l-116.1-67L1172.5,775z M1289.4,707.5l116.1,67l116.1-67l-116.1-67L1289.4,707.5z M1406.4,640l116.1,67l116.1-67l-116.1-67L1406.4,640z M1523.3,572.5 l116.1,67l116.1-67l-116.1-67L1523.3,572.5z M1640.2,505l116.1,67l116.1-67l-116.1-67L1640.2,505z"></path> <path class="st1" d="M707.5,237l50.7,29.3c4.7,2.7,12.4,2.7,17.2,0l39.3-22.7c4.3-2.5,11.3-2.5,15.6,0l65.6,37.9"></path> <path class="st1" d="M1206,404.5l-58.3-33.6c-4.7-2.7-12.4-2.7-17.2,0l-58.7,33.9c-4.3,2.5-11.3,2.5-15.6,0l-40.1-23.2"></path> <path class="st1" d="M1174.7,233.2l-43.2,24.9c-3,1.7-7.9,1.7-10.9,0l-33-19.1c-3-1.7-7.9-1.7-10.9,0l-63.2,36.5 c-3,1.7-7.9,1.7-10.9,0l-9-5.2"></path> <path class="st2" d="M1177.1,231.6c3.1,1.7,3.1,4.5,0,6.2c-3.1,1.7-8.1,1.7-11.2,0c-3.1-1.7-3.1-4.5,0-6.2 C1169,229.8,1174,229.8,1177.1,231.6z"></path> <path class="st2" d="M709.2,231.1c3.1,1.7,3.1,4.5,0,6.2c-3.1,1.7-8.1,1.7-11.2,0c-3.1-1.7-3.1-4.5,0-6.2 C701,229.3,706.1,229.3,709.2,231.1z"></path> <path class="st3" d="M1192.1,426c3.1,1.7,3.1,4.5,0,6.2c-3.1,1.7-8.1,1.7-11.2,0c-3.1-1.7-3.1-4.5,0-6.2 C1184,424.2,1189,424.2,1192.1,426z"></path> <path class="st4" d="M1072.3,492.8c3.1,1.7,3.1,4.5,0,6.2s-8.1,1.7-11.2,0c-3.1-1.7-3.1-4.5,0-6.2 C1064.2,491.1,1069.2,491.1,1072.3,492.8z"></path> <path class="st1" d="M1189.8,395.1l20.1,11.6c4.3,2.5,4.3,6.5,0,9l-17.7,10.2"></path> <path class="st1" d="M799.4,425.1l5.5,3.2 M808.8,506.8l13.3,7.7c3.2,1.8,8.2,1.9,11.2,0.1l55.2-31.8c3-1.7,2.9-4.6-0.2-6.5 l-44.4-25.6l-22.2-12.8l-11.1-6.4l-5.5-3.2 M863.2,381.7l-32,18.5l-16,9.2l-8,4.6l-13.5,7.8 M805,428.3l-11.1-6.4l-0.2-0.1 M782.8,415.5l10.9,6.3"></path> <path class="st4" d="M811.8,501.6c3.1,1.7,3.1,4.5,0,6.2c-3.1,1.7-8.1,1.7-11.2,0c-3.1-1.7-3.1-4.5,0-6.2 C803.7,499.8,808.7,499.8,811.8,501.6z"></path> <path class="st2" d="M870.1,377.3c3.1,1.7,3.1,4.5,0,6.2c-3.1,1.7-8.1,1.7-11.2,0c-3.1-1.7-3.1-4.5,0-6.2 C862,375.5,867,375.5,870.1,377.3z"></path> <path class="st3" d="M1019.4,375.9c3.1,1.7,3.1,4.5,0,6.2c-3.1,1.7-8.1,1.7-11.2,0c-3.1-1.7-3.1-4.5,0-6.2 C1011.2,374.2,1016.2,374.2,1019.4,375.9z"></path> <path class="st3" d="M701.5,272.8c3.1,1.7,3.1,4.5,0,6.2c-3.1,1.7-8.1,1.7-11.2,0c-3.1-1.7-3.1-4.5,0-6.2 C693.3,271.1,698.4,271.1,701.5,272.8z"></path> <path class="st1" d="M691.4,279.2l-28.8,16.6c-2.2,1.2-2.2,3.3,0,4.5l45.2,26.1c2.2,1.2,2.2,3.3,0,4.5L676,349.4 c-2.2,1.2-2.2,3.3,0,4.5l94.4,54.5 M770.4,408.4l31.5,18.2 M770.4,408.4L707.5,372 M770.4,408.4L739,390.2"></path> <path class="st1" d="M1176.9,238l46.6,26.9c2.2,1.2,2.2,3.3,0,4.5l-69.9,40.4c-2.2,1.2-2.2,3.3,0,4.5l53.4,30.8 c2.2,1.2,2.2,3.3,0,4.5l-47.9,27.7"></path> <path class="st2" d="M1161.5,375.8c1.4,0.8,1.4,2,0,2.8c-1.4,0.8-3.6,0.8-5,0c-1.4-0.8-1.4-2,0-2.8 C1157.9,375,1160.1,375,1161.5,375.8z"></path> <path class="st5" d="M870.1,377.3c3.1,1.7,3.1,4.5,0,6.2s-8.1,1.7-11.2,0c-3.1-1.7-3.1-4.5,0-6.2C862,375.5,867,375.5,870.1,377.3z "></path> <path class="st5" d="M1019.4,375.9c3.1,1.7,3.1,4.5,0,6.2c-3.1,1.7-8.1,1.7-11.2,0c-3.1-1.7-3.1-4.5,0-6.2 C1011.2,374.2,1016.2,374.2,1019.4,375.9z"></path> <path class="st1" d="M827.9,441.6l162.8,94c2.6,1.5,6.8,1.5,9.4,0l62.6-36.1"></path> <path class="st3" d="M888.4,473.3c1.4,0.8,1.4,2,0,2.8c-1.4,0.8-3.6,0.8-5,0c-1.4-0.8-1.4-2,0-2.8 C884.8,472.5,887,472.5,888.4,473.3z"></path> <path class="st6" d="M740.4,170.1L693.8,197c-5.3,3-5.3,8,0,11l46.7,26.9c5.3,3,13.8,3,19.1,0l46.7-26.9c5.3-3,5.3-8,0-11 l-46.7-26.9C754.2,167.1,745.7,167.1,740.4,170.1z"></path> <path class="st7" d="M740.4,159.2l-46.7,26.9c-5.3,3-5.3,8,0,11l46.7,26.9c5.3,3,13.8,3,19.1,0l46.7-26.9c5.3-3,5.3-8,0-11 l-46.7-26.9C754.2,156.2,745.7,156.2,740.4,159.2z"></path> <path class="st8" d="M776,169.2l-12.9-7.5l-56.8,32.8c-0.1,0.1-0.2,0.2-0.2,0.3c0,0.1,0.1,0.2,0.2,0.3l12.2,7.1 c0.1,0.1,0.2,0.1,0.4,0l8-4.6c0,0,0,0,0.1,0c0,0,0,0,0.1,0L776,169.2z"></path> <path class="st1" d="M751.1,214.1l14-8.1c6.8-3.9,6.8-10.4,0-14.3l-7.7-4.4c-3.4-2-5.5-5.6-5.5-9.5v-6.7"></path> <path class="st9" d="M759.2,159.4l-13.4-7.8c0-2.1-0.7-3.6-2-4.3l13.4,7.8C758.4,155.8,759.2,157.4,759.2,159.4z"></path> <path class="st10" d="M749.3,150.3l7.9,4.6c-1.2-0.7-2.9-0.6-4.8,0.5l-7.9-4.6C746.4,149.7,748.1,149.6,749.3,150.3z"></path> <path class="st9" d="M747.6,171.3l-7.9-4.6c-1.2-0.7-2-2.2-2-4.3c0-4.3,3-9.5,6.7-11.6l7.9,4.6c-3.7,2.2-6.7,7.4-6.7,11.6 C745.7,169.1,746.4,170.6,747.6,171.3z"></path> <path class="st10" d="M752.4,155.3c3.7-2.1,6.8-0.4,6.8,3.9c0,4.3-3,9.5-6.7,11.6s-6.8,0.4-6.8-3.9 C745.7,162.7,748.7,157.5,752.4,155.3z"></path> <path class="st11" d="M772,112.4l-13.4-7.8c2.9,0.2,5.8,1.1,8.4,2.5l13.4,7.8C777.8,113.5,774.9,112.6,772,112.4z"></path> <path class="st9" d="M755.7,154.7l-13.4-7.8l16.2-42.3l13.4,7.8L755.7,154.7z"></path> <path class="st11" d="M772,112.4c2.9,0.2,5.8,1.1,8.4,2.5c7.5,4.3,11.7,13.4,11.7,25.5l-32.9,19c0-2.1-0.7-3.6-2-4.3 c-0.4-0.2-0.9-0.4-1.4-0.4L772,112.4z"></path> <path class="st12" d="M752.2,117.8c7-4,13.8-5.9,19.8-5.4l-16.2,42.3c-1.2,0-2.4,0.3-3.4,0.9c-1.3,0.8-2.4,1.8-3.4,3l-16.5-23.2 C738.5,127.9,745.3,121.8,752.2,117.8z"></path> <path class="st12" d="M749,158.6l-13.4-7.8l-16.5-23.3l13.4,7.8L749,158.6z"></path> <path class="st13" d="M738.8,110L738.8,110c7-4,13.8-5.9,19.8-5.4l13.4,7.8c-6-0.5-12.8,1.4-19.8,5.4l0,0 c-6.9,4-13.7,10.1-19.7,17.5l-13.4-7.8C725.1,120.1,731.8,114.1,738.8,110z"></path> <path class="st14" d="M738.8,110l0.2,0.4c0.2-0.1,0.2-0.3,0.2-0.4c0-0.2-0.1-0.3-0.2-0.4L738.8,110z M738.8,110l-0.2-0.4 c-0.2,0.1-0.2,0.3-0.2,0.4c0,0.2,0.1,0.3,0.2,0.4L738.8,110z M758.6,104.6l0.3-0.4c-0.1,0-0.1-0.1-0.2-0.1L758.6,104.6z M772,112.4 l0,0.5c0.2,0,0.4-0.1,0.5-0.3s0-0.5-0.2-0.6L772,112.4z M752.2,117.8l-0.3-0.4c-0.2,0.1-0.2,0.3-0.2,0.4c0,0.2,0.1,0.3,0.2,0.4 L752.2,117.8z M752.2,117.8l0.2,0.4c0.2-0.1,0.2-0.3,0.2-0.4c0-0.2-0.1-0.3-0.2-0.4L752.2,117.8z M732.5,135.3l-0.3,0.4 c0.2,0.1,0.5,0.1,0.6-0.1L732.5,135.3z M719.1,127.5l-0.4-0.3c-0.1,0.1-0.1,0.3-0.1,0.4c0,0.1,0.1,0.3,0.2,0.3L719.1,127.5z M739,109.6L739,109.6l-0.5,0.9l0,0L739,109.6z M739,110.5c6.9-4,13.6-5.8,19.5-5.3l0.1-1c-6.1-0.5-13,1.4-20.1,5.5L739,110.5z M758.3,105.1l13.4,7.8l0.5-0.9l-13.4-7.8L758.3,105.1z M772,111.9c-6.1-0.5-13,1.4-20.1,5.5l0.5,0.9c6.9-4,13.6-5.8,19.5-5.3 L772,111.9z M751.9,118.3L751.9,118.3l0.5-0.9l0,0L751.9,118.3z M751.9,117.4c-7,4.1-13.8,10.1-19.9,17.6l0.8,0.6 c6-7.4,12.7-13.4,19.6-17.4L751.9,117.4z M732.7,134.9l-13.4-7.8l-0.5,0.9l13.4,7.8L732.7,134.9z M719.4,127.9 c6-7.4,12.7-13.4,19.6-17.4l-0.5-0.9c-7,4.1-13.8,10.1-19.9,17.6L719.4,127.9z"></path> <path class="st15" d="M732.5,135.3l16.5,23.2c-0.5,0.6-1,1.3-1.4,2c-1.2,2-1.9,4.3-2,6.6l-32.9,19c0-12.1,4.1-26.1,11.5-38.9 C726.7,143.1,729.4,139.1,732.5,135.3z"></path> <path class="st15" d="M712.8,186.2l-13.4-7.8c0-12.1,4.1-26.1,11.5-38.9c2.4-4.2,5.2-8.2,8.2-12l13.4,7.8c-3,3.8-5.8,7.8-8.2,12 C716.9,160.1,712.7,174.1,712.8,186.2z"></path> <path class="st16" d="M751.5,159.2c-1.6,1.5-2.7,3.9-2.7,5.9c0,2.5,1.8,3.5,4,2.3c1.1-0.6,2-1.6,2.7-2.8l18.3-28.1L751.5,159.2z"></path> <path class="st14" d="M748.8,165.1l0.5,0L748.8,165.1z M751.5,159.2l0.3,0.4c0,0,0,0,0,0L751.5,159.2z M752.8,167.4l0.2,0.4 L752.8,167.4z M755.5,164.6l-0.4-0.3c0,0,0,0,0,0L755.5,164.6z M773.8,136.5l0.4,0.3c0.1-0.2,0.1-0.5-0.1-0.7s-0.5-0.1-0.7,0 L773.8,136.5z M749.3,165.1c0-1.9,1.1-4.1,2.6-5.6l-0.7-0.7c-1.7,1.6-2.9,4.1-2.9,6.3L749.3,165.1z M752.5,167 c-1,0.6-1.8,0.6-2.3,0.3c-0.5-0.3-0.9-1-0.9-2.1l-1,0c0,1.4,0.5,2.5,1.4,3c0.9,0.5,2.1,0.4,3.3-0.3L752.5,167z M755.1,164.3 c-0.7,1.1-1.6,2.1-2.6,2.7l0.5,0.9c1.1-0.7,2.2-1.8,2.9-3L755.1,164.3z M755.9,164.8l18.3-28.1l-0.8-0.5l-18.3,28.1L755.9,164.8z M773.5,136.1l-22.3,22.7l0.7,0.7l22.3-22.7L773.5,136.1z"></path> <path class="st7" d="M752.4,161.4c1-0.6,1.8-0.1,1.8,1c0,1.1-0.8,2.5-1.8,3c-1,0.6-1.8,0.1-1.8-1S751.4,162,752.4,161.4z"></path> <path class="st17" d="M757.7,201.8c-4.3-2.5-11.2-2.5-15.5,0c-2,1.2-3.1,2.6-3.2,4.2v8.7c0.1,1.5,1.2,3,3.2,4.2l0.3,0.2 c4.3,2.5,11.2,2.5,15.5,0c2.1-1.2,3.2-2.8,3.2-4.5l0-8.1c0-1.6-1.1-3.2-3.2-4.4L757.7,201.8z"></path> <path class="st18" d="M742.2,201.7c4.3-2.5,11.2-2.5,15.5,0l0.3,0.2c4.3,2.5,4.3,6.5,0,8.9c-4.3,2.5-11.2,2.5-15.5,0l-0.3-0.2 C738,208.2,738,204.2,742.2,201.7z"></path> <path class="st19" d="M753.9,200.3l-4,6.5"></path> <path class="st20" d="M760.2,444.9l44.8,25.9c5.3,3,5.3,8,0,11l-44.8,25.9c-5.3,3-13.8,3-19.1,0l-44.8-25.9c-5.3-3-5.3-8,0-11 l44.8-25.9C746.4,441.8,754.9,441.8,760.2,444.9z"></path> <path class="st21" d="M760.2,424.8l44.8,25.9c5.3,3,5.3,8,0,11l-44.8,25.9c-5.3,3-13.8,3-19.1,0l-44.8-25.9c-5.3-3-5.3-8,0-11 l44.8-25.9C746.4,421.8,754.9,421.8,760.2,424.8z"></path> <path class="st3" d="M763,461.9c2.2,1.3,2.2,3.3,0,4.6c-2.2,1.3-5.7,1.3-7.9,0c-2.2-1.3-2.2-3.3,0-4.6 C757.3,460.6,760.8,460.6,763,461.9z"></path> <path class="st4" d="M756.5,427.2l0,36.1c0,0.4,0.3,0.8,0.8,1.1c1,0.6,2.6,0.6,3.6,0c0.5-0.3,0.8-0.7,0.8-1.1l0-36.1 c0,0.4-0.3,0.8-0.8,1.1c-1,0.6-2.6,0.6-3.6,0C756.7,428,756.5,427.6,756.5,427.2z"></path> <path class="st7" d="M756.5,427.2c0-0.9,1.2-1.6,2.6-1.6c1.4,0,2.6,0.7,2.6,1.5c0,0.9-1.2,1.6-2.6,1.6 C757.6,428.7,756.5,428,756.5,427.2z"></path> <path class="st2" d="M751.5,455.9c2.2,1.3,2.2,3.3,0,4.6c-2.2,1.3-5.7,1.3-7.9,0c-2.2-1.3-2.2-3.3,0-4.6 C745.8,454.7,749.3,454.7,751.5,455.9z"></path> <path class="st4" d="M745,421.2l0,36.1c0,0.4,0.3,0.8,0.7,1.1c1,0.6,2.6,0.6,3.6,0c0.5-0.3,0.8-0.7,0.8-1.1l0-36.1 c0,0.4-0.3,0.8-0.8,1.1c-1,0.6-2.6,0.6-3.6,0C745.3,422,745,421.6,745,421.2z"></path> <path class="st7" d="M745,421.2c0-0.9,1.2-1.6,2.6-1.6c1.4,0,2.6,0.7,2.6,1.5c0,0.9-1.2,1.6-2.6,1.6 C746.2,422.8,745,422.1,745,421.2z"></path> <path class="st12" d="M740.1,449.5c2.2,1.3,2.2,3.3,0,4.6c-2.2,1.3-5.7,1.3-7.9,0c-2.2-1.3-2.2-3.3,0-4.6 C734.3,448.2,737.9,448.2,740.1,449.5z"></path> <path class="st4" d="M733.5,414.8l0,36.1c0,0.4,0.3,0.8,0.8,1.1c1,0.6,2.6,0.6,3.6,0c0.5-0.3,0.8-0.7,0.8-1.1l0-36.1 c0,0.4-0.3,0.8-0.8,1.1c-1,0.6-2.6,0.6-3.6,0C733.8,415.5,733.6,415.1,733.5,414.8z"></path> <path class="st7" d="M733.5,414.8c0-0.9,1.2-1.6,2.6-1.6c1.4,0,2.6,0.7,2.6,1.5c0,0.9-1.2,1.6-2.6,1.6 C734.7,416.3,733.5,415.6,733.5,414.8z"></path> <path class="st15" d="M710.4,376.5l13.3-8.6c3.3-2.1,7.8-1.8,12.8,1.4l-13.3,8.6C718.2,374.7,713.6,374.4,710.4,376.5z"></path> <path class="st15" d="M721.8,377.9l13.9-8.1l5.6,3.3l-13.9,8.1L721.8,377.9z"></path> <path class="st7" d="M734.8,369.7l12.9-8c4.2-2.6,10-2.2,16.4,1.7l-12.9,8C744.8,367.4,739,367.1,734.8,369.7z"></path> <path class="st7" d="M794.7,438.7l-13.3,7.6c3.2-1.9,5.2-5.8,5.2-11.3c0-9.2-5.3-19.9-12.7-26.7l13.3-7.6 c7.4,6.7,12.7,17.5,12.7,26.7C799.9,432.9,797.9,436.8,794.7,438.7z"></path> <path class="st7" d="M751.1,371.2l13-7.9c11.6,7,21.2,23.2,22.8,37.6l-13,7.9C772.3,394.4,762.7,378.2,751.1,371.2z"></path> <path class="st15" d="M751.5,371.4c11.7,6.9,21.3,22.6,22.9,36.7c7.2,6.8,12.5,17.8,12.5,27.1c0,11.4-8,16-17.7,10.3l-46.1-27 c-9.8-5.7-17.6-19.6-17.6-31c0-11.4,8-16,17.7-10.3l5.3,3.1C730.5,368.7,740.1,364.7,751.5,371.4z"></path> <path class="st17" d="M763,425.7c1.1,0.6,1.5,1.4,1.5,2c0,0.6-0.4,1.4-1.5,2c-1.1,0.6-2.5,0.9-4,0.9c-1.5,0-2.9-0.3-4-0.9 c-1.1-0.6-1.5-1.4-1.5-2c0-0.6,0.4-1.4,1.5-2c1.1-0.6,2.5-0.9,4-0.9C760.5,424.7,762,425,763,425.7z"></path> <path class="st22" d="M751.5,419.1c1.1,0.6,1.5,1.4,1.5,2c0,0.6-0.4,1.4-1.5,2c-1.1,0.6-2.5,0.9-4,0.9c-1.5,0-2.9-0.3-4-0.9 c-1.1-0.6-1.5-1.4-1.5-2c0-0.6,0.4-1.4,1.5-2c1.1-0.6,2.5-0.9,4-0.9C749,418.2,750.5,418.5,751.5,419.1z"></path> <path class="st23" d="M740,412.6c1.1,0.6,1.5,1.4,1.5,2c0,0.6-0.4,1.4-1.5,2c-1.1,0.6-2.5,0.9-4,0.9c-1.5,0-2.9-0.3-4-0.9 c-1.1-0.6-1.5-1.4-1.5-2c0-0.6,0.4-1.4,1.5-2c1.1-0.6,2.5-0.9,4-0.9S738.9,412,740,412.6z"></path> <path class="st24" d="M786.8,432.8l-81.2-46.9c0-0.3,0.1-0.6,0.1-0.9l81,46.8C786.7,432,786.7,432.4,786.8,432.8z"></path> <path class="st10" d="M735.4,399.8l9.2,15.6l9.7,0.2l-9.2-15.6L735.4,399.8z"></path> <path class="st9" d="M754.2,415.6l13.5-10.8l-9.2-15.6L745.1,400L754.2,415.6z"></path> <path class="st25" d="M745.1,400l13.5-10.7l-9.7-0.2l-13.5,10.7L745.1,400z"></path> <path class="st6" d="M1116.9,431.5l-60.9,35.1c-5.3,3-5.3,8,0,11l60.9,35.1c5.3,3,13.8,3,19.1,0l60.9-35.1c5.3-3,5.3-8,0-11 l-60.9-35.1C1130.7,428.5,1122.2,428.5,1116.9,431.5z"></path> <path class="st7" d="M1116.9,418.2l-60.9,35.1c-5.3,3-5.3,8,0,11l60.9,35.1c5.3,3,13.8,3,19.1,0l60.9-35.1c5.3-3,5.3-8,0-11 l-60.9-35.1C1130.7,415.2,1122.2,415.2,1116.9,418.2z"></path> <path class="st12" d="M1149.3,448.1l-23.3,13.5l0-26.9l23.3-13.5L1149.3,448.1z"></path> <path class="st12" d="M1102.7,448.1l23.3,13.5l0-26.9l-23.3-13.5L1102.7,448.1z"></path> <path class="st12" d="M1126,407.7l23.3,13.5l-23.3,13.5l-23.3-13.5L1126,407.7z"></path> <path class="st12" d="M1126,461.5l-23.3,13.5l0-26.9l23.3-13.5L1126,461.5z"></path> <path class="st4" d="M1079.4,461.5l23.3,13.5l0-26.9l-23.3-13.5L1079.4,461.5z"></path> <path class="st11" d="M1102.7,421.1l23.3,13.5l-23.3,13.5l-23.3-13.5L1102.7,421.1z"></path> <path class="st15" d="M1172.5,461.5l-23.3,13.5l0-26.9l23.3-13.5L1172.5,461.5z"></path> <path class="st12" d="M1125.9,461.5l23.3,13.5l0-26.9l-23.3-13.5L1125.9,461.5z"></path> <path class="st12" d="M1149.2,421.1l23.3,13.5l-23.3,13.5l-23.3-13.5L1149.2,421.1z"></path> <path class="st15" d="M1149.2,474.9l-23.3,13.5l0-26.9l23.3-13.5L1149.2,474.9z"></path> <path class="st4" d="M1102.6,474.9l23.3,13.5l0-26.9l-23.3-13.5L1102.6,474.9z"></path> <path class="st11" d="M1125.9,434.5l23.3,13.5l-23.3,13.5l-23.3-13.5L1125.9,434.5z"></path> <path class="st2" d="M1149.2,408l-23.3,13.5l0-26.9l23.3-13.5L1149.2,408z"></path> <path class="st4" d="M1102.6,408l23.3,13.5l0-26.9l-23.3-13.5L1102.6,408z"></path> <path class="st2" d="M1125.9,367.6l23.3,13.5l-23.3,13.5l-23.3-13.5L1125.9,367.6z"></path> <path class="st26" d="M1126,409.9l-23.3,13.5l0-26.9L1126,383L1126,409.9z"></path> <path class="st26" d="M1079.4,409.9l23.3,13.5l0-26.9l-23.3-13.5L1079.4,409.9z"></path> <path class="st10" d="M1102.7,369.5L1126,383l-23.3,13.5l-23.3-13.5L1102.7,369.5z"></path> <path class="st15" d="M1172.5,434.5l-23.3,13.5l0-26.9l23.3-13.5L1172.5,434.5z"></path> <path class="st11" d="M1125.9,434.5l23.3,13.5l0-26.9l-23.3-13.5L1125.9,434.5z"></path> <path class="st7" d="M1149.2,394.2l23.3,13.5l-23.3,13.5l-23.3-13.5L1149.2,394.2z"></path> <path class="st15" d="M1149.2,434.8l-23.3,13.5l0-26.9l23.3-13.5L1149.2,434.8z"></path> <path class="st4" d="M1102.6,434.8l23.3,13.5l0-26.9l-23.3-13.5L1102.6,434.8z"></path> <path class="st7" d="M1125.9,394.4l23.3,13.5l-23.3,13.5l-23.3-13.5L1125.9,394.4z"></path> <path class="st12" d="M1104.8,380.8c1.6,0.9,1.6,2.4,0,3.3c-1.6,0.9-4.2,0.9-5.8,0c-1.6-0.9-1.6-2.4,0-3.3 C1100.6,379.9,1103.2,379.9,1104.8,380.8z"></path> <path class="st7" d="M1100,355.5l0,26.3c0,0.3,0.2,0.6,0.5,0.8c0.7,0.4,1.9,0.4,2.7,0c0.4-0.2,0.6-0.5,0.6-0.8l0-26.3 c0,0.3-0.2,0.6-0.6,0.8c-0.7,0.4-1.9,0.4-2.7,0C1100.2,356.1,1100.1,355.8,1100,355.5z"></path> <path class="st7" d="M1100,355.5c0-0.6,0.8-1.1,1.9-1.1c1,0,1.9,0.5,1.9,1.1c0,0.6-0.8,1.1-1.9,1.1 C1100.9,356.6,1100,356.1,1100,355.5z"></path> <path class="st18" d="M1161.9,458.3c-1.6,0.9-2.9,0.2-2.9-1.7c0-1.8,1.3-4.1,2.9-5c1.6-0.9,2.9-0.2,2.9,1.7 C1164.8,455.2,1163.5,457.4,1161.9,458.3z"></path> <path class="st7" d="M1186.1,466.8l-22.7-13.1c-0.2-0.1-0.6-0.1-0.9,0.1c-0.7,0.4-1.3,1.5-1.3,2.3c0,0.4,0.2,0.7,0.4,0.9l22.7,13.1 c-0.2-0.1-0.4-0.4-0.4-0.9c0-0.8,0.6-1.9,1.3-2.3C1185.6,466.7,1185.9,466.7,1186.1,466.8z"></path> <path class="st7" d="M1186.1,466.8c0.5,0.3,0.6,1.3,0,2.2c-0.5,0.9-1.4,1.4-1.9,1.1c-0.5-0.3-0.6-1.3,0-2.2 S1185.6,466.5,1186.1,466.8z"></path> <circle class="st27" cx="1101.7" cy="353.9" r="6.9"></circle> <path class="st28" d="M1105.2,355.3c0-3.8-3.1-6.9-6.9-6.9c-0.3,0-0.6,0-0.9,0.1c1.2-0.9,2.7-1.5,4.3-1.5c3.8,0,6.9,3.1,6.9,6.9 c0,3.5-2.6,6.4-6,6.8C1104.2,359.4,1105.2,357.5,1105.2,355.3z"></path> <circle class="st1" cx="1101.7" cy="353.9" r="6.4"></circle> <circle class="st29" cx="1187.5" cy="470.3" r="6.9"></circle> <circle class="st1" cx="1187.5" cy="470.3" r="6.4"></circle> <path class="st6" d="M1004.1,383.8c-36.8,21.3-96.5,21.3-133.4,0c-36.8-21.3-36.8-55.7,0-77c36.8-21.3,96.5-21.3,133.4,0 C1040.9,328,1040.9,362.5,1004.1,383.8z"></path> <path class="st30" d="M1007.1,113.3c-19.5-11.3-44.8-16.8-69.7-16.8c-25,0-50.2,5.5-69.7,16.8c-19.8,11.4-30.8,27.3-30.4,44.1v165 c0,0,0,0.1,0,0.1c0.4,16.2,11.3,31.3,30.4,42.3c19.5,11.3,44.8,16.8,69.7,16.8c25,0,50.2-5.5,69.7-16.8c19.1-11,30-26.1,30.4-42.3 c0,0,0-0.1,0-0.1c0,0,0,0,0,0v-165C1037.9,140.6,1027,124.8,1007.1,113.3z"></path> <path class="st31" d="M1004.5,117.8c-37.1-21.4-97.2-21.4-134.3,0c-18.9,10.9-28.2,25.3-27.8,39.6v165c0.3,13.8,9.6,27.5,27.8,38 c37.1,21.4,97.2,21.4,134.3,0c18.2-10.5,27.5-24.2,27.8-38v-165C1032.7,143.1,1023.4,128.7,1004.5,117.8z"></path> <path class="st7" d="M1004.5,360.3c-37.1,21.4-97.2,21.4-134.3,0c-37.1-21.4-37.1-56.1,0-77.5c37.1-21.4,97.2-21.4,134.3,0 C1041.6,304.2,1041.6,338.9,1004.5,360.3z"></path> <path class="st32" d="M1004.7,360.4c-37.2,21.5-97.5,21.5-134.7,0c-37.2-21.5-37.2-56.3,0-77.8c37.2-21.5,97.5-21.5,134.7,0 C1041.9,304.1,1041.9,338.9,1004.7,360.4z"></path> <path class="st33" d="M996.4,349.2c-15.5,9.8-36.8,15.3-59,15.3c-22.2,0-43.5-5.4-59-15.3c-15.6-9.9-19.8-20.5-19.8-27.5 c0-7,4.3-17.6,19.8-27.5c15.5-9.8,36.8-15.3,59-15.3c22.2,0,43.5,5.4,59,15.3c15.6,9.9,19.8,20.5,19.8,27.5 C1016.2,328.7,1011.9,339.3,996.4,349.2z"></path> <path class="st34" d="M1030.5,150l-44.2,168.6l-14-14.1h-34.5l-48.5,14.1L845,150l92.7,1L1030.5,150z"></path> <defs> <filter id="Adobe_OpacityMaskFilter" filterUnits="userSpaceOnUse" x="858.1" y="278.4" width="158.6" height="86.5"> <feColorMatrix type="matrix" values="1 0 0 0 0 0 1 0 0 0 0 0 1 0 0 0 0 0 1 0"></feColorMatrix> </filter> </defs> <mask maskUnits="userSpaceOnUse" x="858.1" y="278.4" width="158.6" height="86.5" id="mask0_2003_2265_00000155136742810841932550000004857680983934189485_"> <path class="st35" d="M1030.5,150l-44.2,168.6h-48.5h-48.5L845,150l92.7,1L1030.5,150z"></path> </mask> <g class="st36"> <path class="st37" d="M996.4,349.2c-15.5,9.8-36.8,15.3-59,15.3c-22.2,0-43.5-5.4-59-15.3c-15.6-9.9-19.8-20.5-19.8-27.5 c0-7,4.3-17.6,19.8-27.5c15.5-9.8,36.8-15.3,59-15.3c22.2,0,43.5,5.4,59,15.3c15.6,9.9,19.8,20.5,19.8,27.5 C1016.2,328.7,1011.9,339.3,996.4,349.2z"></path> </g> <path class="st38" d="M962.6,309.4c7.9-0.1,15.7,2,22.5,6c6.6,3.8,10.4,8.2,10.6,12.9c0.1,4.7-3.5,9.3-11,13.7l-23.1,13.4 c-0.1,0.1-0.3,0.1-0.4,0l-8.6-5c-0.1-0.1-0.2-0.2-0.2-0.4c0-0.2,0.1-0.3,0.2-0.4l23.1-13.4c4.8-2.8,6.9-5.5,7-8.1 c0.1-2.5-1.9-5.1-5.9-7.4c-8-4.6-18.1-4.8-27.6,0.7l-10.5,6.2c-0.2,0.1-0.5,0.1-0.6-0.1c-0.8-1.2-1.9-2.2-3.2-2.9l0,0 c-1.6-0.9-3.3-1.5-5.1-1.9c-0.2,0-0.3-0.2-0.4-0.4c0-0.2,0.1-0.4,0.2-0.5l10.5-6.1C946.9,311.6,954.6,309.4,962.6,309.4z"></path> <path class="st9" d="M938.4,309.3v11.5c-0.8-1.3-2-2.3-3.3-3.1c-1.6-0.9-3.4-1.6-5.3-1.9v-11.5c1.8,0.3,3.6,1,5.3,1.9 C936.4,306.9,937.6,308,938.4,309.3z"></path> <path class="st39" d="M983.1,321.5v-11.5c0-2.7-2.1-5.3-6.1-7.6c-8.1-4.7-18.4-4.9-28,0.7v0.1l0,0l-10.6,6.1l0,11.5l10.6-6.2v0 c9.6-5.6,19.9-5.4,28-0.7C981,316.3,983.1,318.8,983.1,321.5z"></path> <path class="st40" d="M982.6,321.5c0,0.3,0.2,0.5,0.5,0.5s0.5-0.2,0.5-0.5H982.6z M977,302.4l0.3-0.4h0L977,302.4z M949,303.1 l-0.3-0.4c-0.2,0.1-0.2,0.3-0.2,0.4H949z M949,303.2l-0.4,0.2c0.1,0.2,0.3,0.3,0.6,0.3c0.2-0.1,0.4-0.3,0.4-0.5H949z M949,303.1 l0.4-0.2c-0.1-0.1-0.2-0.2-0.3-0.2s-0.3,0-0.4,0L949,303.1z M938.4,309.3l-0.3-0.4c-0.2,0.1-0.2,0.3-0.2,0.4L938.4,309.3z M938.4,320.7l-0.5,0c0,0.2,0.1,0.3,0.2,0.4c0.2,0.1,0.3,0.1,0.5,0L938.4,320.7z M949,314.6h0.5c0-0.2-0.1-0.3-0.2-0.4 c-0.2-0.1-0.3-0.1-0.5,0L949,314.6z M949,314.6h-0.5c0,0.2,0.1,0.3,0.3,0.4c0.2,0.1,0.3,0.1,0.5,0L949,314.6z M977,313.9l0.3-0.4 l0,0L977,313.9z M982.6,310.1v11.5h1v-11.5H982.6z M976.8,302.9c3.9,2.3,5.9,4.7,5.9,7.2h1c0-3-2.3-5.7-6.4-8.1L976.8,302.9z M949.2,303.5c9.5-5.5,19.5-5.3,27.5-0.7l0.5-0.9c-8.3-4.8-18.8-5-28.5,0.7L949.2,303.5z M949.5,303.2L949.5,303.2l-1-0.1v0.1 H949.5z M948.5,303.4L948.5,303.4l0.9-0.4l0,0L948.5,303.4z M938.6,309.7l10.6-6.1l-0.5-0.9l-10.6,6.1L938.6,309.7z M938.9,320.7 l0-11.5l-1,0l0,11.5L938.9,320.7z M948.7,314.1l-10.6,6.2l0.5,0.9l10.6-6.2L948.7,314.1z M949.5,314.6L949.5,314.6l-1,0v0H949.5z M977.2,313.5c-8.3-4.8-18.8-5-28.5,0.7l0.5,0.9c9.5-5.5,19.5-5.3,27.5-0.7L977.2,313.5z M983.6,321.5c0-3-2.3-5.7-6.4-8.1 l-0.5,0.9c4,2.4,5.9,4.8,5.9,7.2H983.6z"></path> <path class="st41" d="M984.9,297.8c13.2,7.6,14.5,17.1-0.4,25.8L961.4,337l-8.6-5l23.1-13.4c9.6-5.6,9.2-11.5,1.1-16.2 c-8.1-4.7-18.4-4.9-28,0.7l-10.5,6.2c-0.8-1.3-2-2.4-3.4-3.1c-1.6-0.9-3.4-1.6-5.3-1.9l10.5-6.1c6.7-4,14.4-6.2,22.2-6.3 C970.4,291.8,978.1,293.9,984.9,297.8z"></path> <path class="st39" d="M995.2,310.6V322c0,4.3-3.4,8.8-10.7,13V335l0,0.1l-23.1,13.4l0,0l-8.6-5l0-11.5l8.6,5l0,0l23.1-13.4v0 C991.8,319.4,995.2,314.9,995.2,310.6z"></path> <path class="st40" d="M995.7,310.6c0-0.3-0.2-0.5-0.5-0.5c-0.3,0-0.5,0.2-0.5,0.5H995.7z M984.5,335.1H984c0,0.2,0.1,0.3,0.3,0.4 c0.2,0.1,0.3,0.1,0.5,0L984.5,335.1z M984.5,335h0.5c0-0.3-0.2-0.5-0.5-0.5c-0.3,0-0.5,0.2-0.5,0.4L984.5,335z M984.5,335.1 l0.3,0.4c0.1-0.1,0.2-0.2,0.2-0.3L984.5,335.1z M961.4,348.5l-0.3-0.4c-0.2,0.1-0.2,0.3-0.2,0.4L961.4,348.5z M961.4,348.5 l-0.2,0.4c0.2,0.1,0.3,0.1,0.5,0c0.2-0.1,0.2-0.3,0.2-0.4L961.4,348.5z M952.8,343.5l-0.5,0c0,0.2,0.1,0.3,0.3,0.4L952.8,343.5z M952.8,332.1l0.2-0.4c-0.2-0.1-0.3-0.1-0.5,0c-0.2,0.1-0.2,0.3-0.2,0.4L952.8,332.1z M961.4,337l-0.2,0.4c0.2,0.1,0.3,0.1,0.5,0 c0.2-0.1,0.2-0.3,0.2-0.4L961.4,337z M961.4,337l-0.3-0.4c-0.2,0.1-0.2,0.3-0.2,0.4L961.4,337z M984.5,323.6l0.3,0.4 c0.2-0.1,0.2-0.3,0.2-0.4H984.5z M984.5,323.6l-0.3-0.4c-0.2,0.1-0.2,0.3-0.2,0.4H984.5z M995.7,322v-11.5h-1V322H995.7z M984.7,335.5c7.3-4.3,11-8.9,11-13.5h-1c0,4-3.2,8.4-10.5,12.6L984.7,335.5z M984,335L984,335l1,0.1V335H984z M984,334.9 L984,334.9l1,0.3l0-0.1L984,334.9z M984.2,334.7l-23.1,13.4l0.5,0.9l23.1-13.4L984.2,334.7z M961.9,348.5L961.9,348.5l-1,0v0 L961.9,348.5z M952.5,344l8.6,5l0.5-0.9l-8.6-5L952.5,344z M952.3,332.1l0,11.5l1,0l0-11.5L952.3,332.1z M961.7,336.6l-8.6-5 l-0.5,0.9l8.6,5L961.7,336.6z M961.9,337L961.9,337l-1,0v0L961.9,337z M961.7,337.5l23.1-13.4l-0.5-0.9l-23.1,13.4L961.7,337.5z M984,323.6L984,323.6l1,0v0H984z M994.7,310.6c0,4-3.2,8.4-10.5,12.6l0.5,0.9c7.4-4.3,11-8.9,11-13.5H994.7z"></path> <path class="st38" d="M915.9,305.5c-1.8-0.2-3.9-0.2-6.1,0.2c-2.1,0.4-3.8,1-5.1,1.9c-2.4,1.5-3.2,3.6-2.1,5.5 c1,1.8,3.8,2.8,6.6,3.7c3.6,1,6.3,2,7.5,4.2c0,0,0,0,0.1,0c2,3.6-4.2,7.4-11.1,6.7c0,0,0,0-0.1,0c-4.1-0.4-6.2-1.8-8.4-3.6 c-1.7-1.5-3.9-2.8-7.4-3.2c-3.7-0.4-7.4,0.4-9.9,1.7c-1.5,0.8-2.5,1.8-3,2.9c-0.5,1.2-0.4,2.3,0.3,3.3c1.2,1.8,4,3.1,7.6,3.5 c3.3,0.3,6.6-0.5,9.4-1.5c3.6-1.3,6.7-2.1,10.7-1.6c4.1,0.4,6.2,1.8,8.4,3.6c1.7,1.5,3.9,2.8,7.4,3.2c3.7,0.4,7.4-0.4,9.9-1.7 c0.2-0.1,0.3-0.2,0.5-0.3c0.2-0.1,0.3-0.2,0.5-0.3c2.4-1.5,3.2-3.6,2.1-5.5c-1-1.8-3.8-2.8-6.6-3.7c-3.6-1-6.3-2-7.5-4.2 c-1.1-2.1-0.1-3.9,1.9-5.9c1.5-1.6,2.7-3.4,1.8-5.2C922.1,307.3,919.3,305.9,915.9,305.5z"></path> <path class="st9" d="M924.5,295.6v9.6c0,0.4-0.1,0.9-0.2,1.3c-0.4,1.2-1.5,2.3-2.9,3.1c-0.7,0.4-1.5,0.7-2.3,1l0-9.2 c0.8-0.3,1.6-0.6,2.3-1c1.5-0.8,1.7-2,2.1-3.1c0.2-0.4,0-2.1,0-2.5L924.5,295.6z"></path> <path class="st9" d="M901.6,305.9l0-9.2c0,0.4,0.1,0.8,0.2,1.2c0.4,1.2,1.4,2.3,2.8,3.1c1.6,0.9,4.2,1.4,6.5,1.5l0,9.2 c-2.3-0.2-4.9-0.6-6.5-1.5c-1.5-0.8-2.5-1.9-2.8-3.1C901.7,306.6,901.6,306.2,901.6,305.9z"></path> <path class="st9" d="M916.1,305.5v2.5l-4.5,4.1l0-9.2L916.1,305.5z"></path> <path class="st9" d="M915.5,319.4l0.6,8.3c0,0-3.8-5.1-10.2-5.7c-6.4-0.6-10.7,2.5-10.7,2.5l0-9.2l11.3-0.9L915.5,319.4z"></path> <path class="st9" d="M895.6,315.3l0,9.2c-0.5,0.5-1.1,0.9-1.7,1.3c-1.5,0.9-3.3,1.4-5.4,1.7c-2,0.2-4.1,0.1-6.1-0.3 c-1.2-0.3-2.3-0.7-3.4-1.3c-0.5-0.3-0.9-0.6-1.3-0.9c-1.2-1-1.8-2.2-1.8-3.4v-9.9c0,1.2,1.1,2.9,2.2,3.9c0.4,0.3,0.4,0.6,0.8,0.8 c1.1,0.6,2.7,0.9,3.9,1.1c2,0.5,4,0.6,6.1,0.3c2-0.2,3.9-0.6,5.4-1.4C894.9,316,895.1,315.8,895.6,315.3z"></path> <path class="st9" d="M918.3,320.2v9.4c-1.6-0.9-2.6-2.1-2.9-3.4v-9.5C915.7,318,916.7,319.2,918.3,320.2z"></path> <path class="st9" d="M935.3,315.5l0,9.2c0,0.1,0,0.1,0,0.2c-0.1,1.5-1.2,3-3.1,4.1c-1.9,1.1-4.4,1.7-7.1,1.8 c-2.7,0.1-5.2-0.5-7.2-1.5l0-9.2c2,1,4.6,0.9,7.2,0.8c2.7-0.1,5.2-0.7,7.1-1.8c1.9-1.1,3-1.9,3.1-3.5 C935.3,315.6,935.3,315.6,935.3,315.5z"></path> <path class="st42" d="M909,301.8L909,301.8L909,301.8c3.6,1,6.1,2,7.2,4l0,0.1l0.1,0.1c1.7,3.3-3.9,6.7-10.3,6.2L906,312l-0.2,0 c-3.8-0.3-5.9-1.6-8-3.4c-1.7-1.5-4-3-7.8-3.3c-3.9-0.4-7.8,0.4-10.5,1.8l0,0l0,0c-1.6,0.8-2.7,1.9-3.2,3.1l0.6,0.1l-0.6-0.1 c-0.5,1.2-0.4,2.4,0.4,3.5c1.3,1.9,4.2,3.3,8.1,3.7h0c3.6,0.4,7.1-0.6,9.9-1.6c3.6-1.2,6.5-2,10.3-1.6l0,0l0,0 c3.8,0.3,5.9,1.6,8,3.4c1.7,1.5,4,3,7.8,3.3c3.9,0.4,7.8-0.4,10.5-1.8l0,0l0,0l0,0l0,0h0l0,0l0,0h0l0,0l0,0h0l0,0l0,0h0l0,0l0,0h0 l0,0l0,0h0l0,0l0,0h0l0,0l0,0h0l0,0l0,0h0l0,0l0,0h0l0,0l0,0h0l0,0l0,0h0l0,0l0,0h0l0,0l0,0h0l0,0h0l0,0l0,0h0l0,0l0,0h0l0,0l0,0h0 l0,0h0l0,0l0,0h0l0,0l0,0h0l0,0h0l0,0l0,0h0l0,0h0l0,0l0,0h0l0,0l0,0h0l0,0h0l0,0l0,0h0l0,0h0l0,0l0,0h0l0,0h0l0,0l0,0h0l0,0h0l0,0 v0h0l0,0h0l0,0h0l0,0l0,0h0l0,0h0l0,0l0,0h0l0,0h0l0,0h0l0,0l0,0h0l0,0h0l0,0h0l0,0l0,0l0,0l0,0h0l0,0h0l0,0l0,0h0l0,0h0l0,0h0l0,0 h0l0,0l0,0l0,0l0,0h0l0,0h0l0,0h0l0,0l0,0h0l0,0h0l0,0l0,0l0,0h0l0,0l0,0h0l0,0h0l0,0h0l0,0l0,0l0,0h0l0,0l0,0h0l0,0h0l0,0h0v0h0 l0,0h0l0,0h0l0,0l0,0h0l0,0l0,0l0,0h0l0,0h0l0,0h0l0,0h0v0h0l0,0l0,0h0l0,0h0l0,0l0,0l0,0h0l0,0h0l0,0h0l0,0l0,0l0,0h0l0,0l0,0h0 l0,0h0v0h0l0,0h0l0,0h0l0,0h0v0h0l0,0h0l0,0h0l0,0h0v0l0,0h0l0,0h0l0,0h0v0h0l0,0h0l0,0h0l0,0h0v0h0l0,0h0l0,0h0l0,0l0,0l0,0h0l0,0 l0,0h0l0,0h0v0h0l0,0h0l0,0h0l0,0l0,0l0,0h0l0,0h0l0,0h0v0h0l0,0h0l0,0h0l0,0l0,0l0,0l0,0h0l0,0h0l0,0h0l0,0l0,0l0,0h0l0,0h0l0,0h0 v0h0l0,0h0l0,0h0l0,0l0,0l0,0l0,0h0l0,0h0l0,0h0l0,0l0,0l0,0h0l0,0h0l0,0h0l0,0l0,0l0,0l0,0h0l0,0h0l0,0h0l0,0l0,0l0,0h0l0,0h0l0,0 l0,0h0l0,0l0,0l0,0h0l0,0h0l0,0h0l0,0h0l0,0v0h0l0,0h0l0,0h0l0,0h0l0,0h0l0,0v0h0l0,0h0l0,0h0l0,0h0l0,0h0l0,0l0,0l0,0l0,0h0l0,0h0 l0,0h0l0,0l0,0h0l0,0h0l0,0h0v0l0,0h0l0,0h0l0,0h0l0,0h0l0,0l0,0h0l0,0h0l0,0h0l0,0l0,0h0l0,0l0,0l0,0l0,0h0l0,0h0l0,0h0l0,0l0,0h0 l0,0h0l0,0l0,0h0l0,0h0l0,0h0l0,0l0,0h0l0,0h0l0,0l0,0h0l0,0h0l0,0l0,0h0l0,0l0,0h0l0,0h0l0,0l0,0h0l0,0h0l0,0l0,0h0l0,0h0l0,0l0,0 h0l0,0l0,0h0l0,0h0l0,0l0,0h0l0,0l0,0h0l0,0l0,0h0l0,0h0l0,0l0,0h0l0,0l0,0h0l0,0l0,0h0l0,0l0,0h0l0,0l0,0h0l0,0l0,0h0l0,0l0,0h0 l0,0l0,0h0l0,0l0,0h0l0,0l0,0h0l0,0l0,0h0l0,0l0,0h0l0,0l0,0h0l0,0l0,0l0,0h0l0,0l0,0h0l0,0l0,0h0l0,0l0,0h0l0,0l0,0h0l0,0l0,0h0 l0,0l0,0h0l0,0l0,0h0l0,0l0,0h0l0,0l0,0h0l0,0l0,0h0l0,0l0,0h0l0,0l0,0h0l0,0l0,0h0l0,0h0l0,0l0,0h0l0,0l0,0h0l0,0l0,0h0l0,0h0l0,0 l0,0h0l0,0l0,0h0l0,0h0l0,0l0,0h0l0,0h0l0,0l0,0h0l0,0l0,0h0l0,0h0l0,0l0,0h0l0,0h0l0,0l0,0h0l0,0h0l0,0v0h0l0,0h0l0,0l0,0h0l0,0h0 l0,0h0l0,0l0,0h0l0,0h0l0,0l0,0h0l0,0h0l0,0h0l0,0l0,0h0l0,0h0l0,0h0l0,0l0,0l0,0l0,0h0l0,0h0l0,0l0,0h0l0,0h0l0,0h0l0,0h0l0,0l0,0 l0,0l0,0h0l0,0h0l0,0l0,0h0l0,0h0l0,0h0l0,0l0,0l0,0h0l0,0l0,0h0l0,0h0l0,0h0l0,0l0,0l0,0h0l0,0l0,0h0l0,0h0l0,0h0l0,0l0,0l0,0h0 l0,0l0,0h0l0,0h0l0,0l0,0l0,0h0l0,0h0l0,0h0l0,0h0v0l0,0h0l0,0h0l0,0h0l0,0h0v0h0l0,0h0l0,0h0l0,0h0v0l0,0h0l0,0h0l0,0h0l0,0l0,0 l0,0h0l0,0h0l0,0h0l0,0l0,0l0,0h0l0,0h0l0,0l0,0l0,0l0,0h0l0,0h0l0,0h0l0,0l0,0l0,0h0l0,0h0l0,0h0v0h0l0,0h0l0,0h0l0,0h0v0l0,0h0 l0,0h0l0,0h0v0h0l0,0h0l0,0h0l0,0l0,0l0,0h0l0,0h0l0,0h0l0,0l0,0l0,0h0l0,0l0,0h0l0,0l0,0l0,0h0l0,0h0l0,0h0l0,0l0,0l0,0h0l0,0h0 l0,0h0l0,0l0,0l0,0h0l0,0l0,0h0l0,0h0v0h0l0,0h0l0,0h0l0,0h0v0h0l0,0h0l0,0l0,0h0l0,0l0,0l0,0h0l0,0h0l0,0h0l0,0h0v0h0l0,0h0l0,0 l0,0h0l0,0h0v0h0l0,0h0l0,0h0l0,0h0l0,0l0,0l0,0l0,0h0l0,0h0l0,0h0l0,0h0l0,0v0h0l0,0h0l0,0h0l0,0h0l0,0h0l0,0l0,0l0,0l0,0h0l0,0h0 l0,0h0l0,0l0,0h0l0,0h0l0,0h0v0l0,0h0l0,0h0l0,0h0l0,0h0l0,0l0,0h0l0,0h0l0,0h0l0,0l0,0h0v0h0l0,0l0,0h0l0,0h0l0,0h0l0,0l0,0h0l0,0 h0l0,0l0,0h0l0,0h0l0,0h0l0,0l0,0h0l0,0h0l0,0l0,0h0l0,0h0l0,0l0,0h0l0,0h0l0,0l0,0h0l0,0l0,0h0l0,0h0l0,0l0,0h0l0,0h0l0,0l0,0h0 l0,0l0,0h0l0,0h0l0,0l0,0h0l0,0l0,0h0l0,0l0,0h0l0,0h0l0,0l0,0h0l0,0l0,0h0l0,0l0,0h0l0,0l0,0h0l0,0l0,0h0l0,0h0l0,0l0,0h0l0,0l0,0 h0l0,0l0,0h0l0,0l0,0l0,0h0l0,0l0,0h0l0,0l0,0h0l0,0l0,0h0l0,0l0,0h0l0,0l0,0c2.5-1.6,3.4-3.8,2.2-5.8c-1.1-1.9-4-3-6.9-3.8l0,0 l0,0c-3.5-1-6.1-2-7.2-4c-1-2-0.1-3.7,1.8-5.7c1.6-1.6,2.8-3.5,1.8-5.5l0,0l0,0c-1.5-1.8-4.4-3.3-7.9-3.7c-1.9-0.3-4.2-0.2-6.4,0.2 c-2.2,0.4-4,1.1-5.4,2c-2.5,1.6-3.4,3.8-2.2,5.8C903.2,299.8,906.2,300.9,909,301.8z"></path> <path class="st43" d="M1007.1,113.4c-19.5-11.3-44.8-16.8-69.7-16.8c-25,0-50.2,5.5-69.7,16.8c-19.5,11.2-30.4,26.7-30.4,43.2 s10.9,32,30.4,43.2c19.5,11.3,44.8,16.8,69.7,16.8c25,0,50.2-5.5,69.7-16.8c19.5-11.3,30.4-26.7,30.4-43.2 S1026.6,124.6,1007.1,113.4z"></path> <path class="st14" d="M1007.1,113.4l-0.2,0.4L1007.1,113.4z M867.6,113.4l-0.2-0.4L867.6,113.4z M867.6,199.9l-0.2,0.4L867.6,199.9 z M1007.1,199.9l0.2,0.4L1007.1,199.9z M937.4,97.1c24.9,0,50.1,5.5,69.5,16.7l0.5-0.9c-19.6-11.3-45-16.8-70-16.8V97.1z M867.9,113.8c19.4-11.2,44.6-16.7,69.5-16.7v-1c-25,0-50.4,5.5-70,16.8L867.9,113.8z M837.7,156.6c0-16.3,10.8-31.6,30.2-42.8 l-0.5-0.9c-19.6,11.3-30.7,26.9-30.7,43.7H837.7z M867.9,199.4c-19.4-11.2-30.2-26.5-30.2-42.8h-1c0,16.8,11.1,32.4,30.7,43.7 L867.9,199.4z M937.4,216.1c-24.9,0-50.1-5.5-69.5-16.7l-0.5,0.9c19.6,11.3,45,16.8,70,16.8V216.1z M1006.9,199.4 c-19.4,11.2-44.6,16.7-69.5,16.7v1c25,0,50.4-5.5,70-16.8L1006.9,199.4z M1037,156.6c0,16.3-10.8,31.6-30.2,42.8l0.5,0.9 c19.6-11.3,30.7-26.9,30.7-43.7H1037z M1006.9,113.8c19.4,11.2,30.2,26.5,30.2,42.8h1c0-16.8-11.1-32.4-30.7-43.7L1006.9,113.8z"></path> <path class="st44" d="M1004.5,195.4c-37.1,21.4-97.2,21.4-134.3,0c-37.1-21.4-37.1-56.1,0-77.5c37.1-21.4,97.2-21.4,134.3,0 C1041.6,139.2,1041.6,174,1004.5,195.4z"></path> <path class="st45" d="M993.8,189.2c-31.2,18-81.7,18-112.9,0c-31.2-18-31.2-47.2,0-65.2c31.2-18,81.7-18,112.9,0 C1025,142,1025,171.2,993.8,189.2z"></path> <path class="st46" d="M898.9,129.8c2.4,1.4,2.8,3.5,1.3,5.1l34.8,13.9c0.4-0.3,0.8-0.7,1.4-1c1-0.6,2.1-1,3.2-1.3l-6.1-5.1 c-1.5,0.4-3.3,0.3-4.6-0.4c-1.6-0.9-1.6-2.3,0-3.2s4.1-0.9,5.6,0c1.5,0.9,1.6,2.3,0,3.2l6.4,5.3c3.6-0.6,7.6-0.1,10.4,1.5 c0.9,0.5,1.7,1.2,2.2,1.8l21.3-10.3c-2.3-1.9-2-4.4,0.9-6.1c3.2-1.9,8.4-1.9,11.6,0c3.2,1.9,3.2,4.9,0,6.7c-1.7,1-3.9,1.4-6.1,1.4 l-6.9,26.8l2,4.1l13.5-13.2c-1.8-1.1-1.8-2.8,0-3.8c1.8-1.1,4.8-1.1,6.6,0c1.8,1.1,1.8,2.8,0,3.8c-1.5,0.9-3.9,1-5.7,0.4 l-14.3,13.9L976,174l-0.3-0.6l-1.5-3.2l-0.5,6.2c1.8,0.3,3.5,0.9,5,1.7c4.5,2.6,4.5,6.8,0,9.4c-4.5,2.6-11.8,2.6-16.3,0 c-4.5-2.6-4.5-6.8,0-9.4c1-0.6,2-1,3.2-1.3l-6.7-10.2c-2.3,0.8-5.3,0.7-7.3-0.5l-11.9,9.5c1.7,1.2,1.5,2.9-0.4,4 c-2,1.2-5.3,1.2-7.3,0c-1.5-0.9-1.9-2.2-1.1-3.3l-18.3-7.7c-0.4,1.3-1.5,2.6-3.3,3.6c-0.8,0.4-1.6,0.8-2.5,1.1l10.2,15.9l-0.8,0.5 l-10.4-16.1c-4.3,1.1-9.5,0.7-13.1-1.4c-4.6-2.6-4.6-6.9,0-9.6c2.5-1.5,5.9-2.1,9.3-2l-5.5-11.3l0-0.1l0-0.1l-2.6-12.1 c-2,0.1-4.1-0.4-5.6-1.3c-2.9-1.7-2.9-4.4,0-6.1C891.3,128.1,896,128.1,898.9,129.8z M898.9,135.9c-1.1,0.6-2.5,1-3.9,1.2l2.5,11.9 l5.7,11.8c2.2,0.2,4.2,0.8,6,1.8l24.7-8.4c-0.9-1.5-0.7-3.1,0.4-4.5l-35-14C899.2,135.7,899,135.8,898.9,135.9z M910.2,163.2 c1.8,1.3,2.6,2.8,2.5,4.4l18.9,8c0.1-0.1,0.2-0.1,0.3-0.2c1.8-1.1,4.7-1.2,6.7-0.3l12-9.5c-1.5-1.3-1.2-3.1,0.8-4.3 c2.3-1.3,6.1-1.3,8.4,0c2.3,1.3,2.3,3.5,0,4.8c0,0-0.1,0.1-0.2,0.1l6.8,10.3c1.9-0.4,4-0.5,6.1-0.3l0.6-8l0,0l0,0l6.9-26.8 c-1.6-0.1-3.2-0.6-4.5-1.3L954,150.5c1,2,0.1,4.3-2.7,5.9c-4.1,2.4-10.8,2.4-14.9,0c-0.8-0.5-1.4-1-1.9-1.5L910.2,163.2z"></path> <ellipse class="st47" cx="918.6" cy="190.6" rx="5.2" ry="3"></ellipse> <path class="st1" d="M971.4,171.6l10.5-65.3L946.2,120 M971.4,171.6l-15.9-28.8L936.1,169l-35.4-12.5 M971.4,171.6l21.8-37.3 M946.2,120l-45.5,36.5 M946.2,120l-59.8-27.7l14.3,64.2 M946.2,120l-17.3-22 M900.7,156.5l18.2,28"></path> <circle class="st48" cx="901.1" cy="156" r="14.1"></circle> <path class="st49" d="M915.2,156c0,7.8-6.3,14.1-14.1,14.1c-7.8,0-14.1-6.3-14.1-14.1c0-1.1,0.1-2.2,0.4-3.3 c1.5,6.2,7.1,10.8,13.7,10.8c6.7,0,12.3-4.6,13.7-10.8C915.1,153.8,915.2,154.9,915.2,156z"></path> <circle class="st1" cx="901.1" cy="156" r="14.1"></circle> <circle class="st50" cx="982.1" cy="107.8" r="10.5"></circle> <path class="st51" d="M992.3,105.2c1.4,5.5-1.9,11.2-7.4,12.6c-5.6,1.5-11.3-1.8-12.8-7.4c-0.5-1.8-0.5-3.6,0-5.3 c0,0.1,0,0.1,0,0.2c1.5,5.6,7.2,8.9,12.8,7.4C988.6,111.8,991.4,108.8,992.3,105.2z"></path> <circle class="st52" cx="982.1" cy="107.8" r="10.5"></circle> <circle class="st48" cx="970.6" cy="170.3" r="12.4"></circle> <path class="st49" d="M982.7,167.7c-1.2,5.6-6.2,9.8-12.1,9.8c-5.9,0-10.9-4.2-12.1-9.8c-0.2,0.8-0.3,1.7-0.3,2.6 c0,6.8,5.5,12.4,12.4,12.4c6.8,0,12.4-5.5,12.4-12.4C983,169.4,982.9,168.6,982.7,167.7z"></path> <circle class="st1" cx="970.6" cy="170.3" r="12.4"></circle> <circle class="st50" cx="892.4" cy="96.6" r="11.1"></circle> <path class="st51" d="M901.9,96.8c-3.1,5.3-9.9,7.1-15.2,4.1c-2.6-1.5-4.4-4-5.2-6.7c-1,4.6,1,9.6,5.3,12.1 c5.3,3.1,12.1,1.2,15.2-4.1c1.5-2.7,1.9-5.7,1.1-8.5C902.9,94.7,902.5,95.8,901.9,96.8z"></path> <circle class="st52" cx="892.4" cy="96.6" r="11.1"></circle> <circle class="st48" cx="946.2" cy="119.5" r="10.5"></circle> <path class="st49" d="M956.2,116.5c-1.3,4.3-5.3,7.4-10,7.4c-4.7,0-8.7-3.1-10-7.4c-0.3,1-0.4,2-0.4,3c0,5.8,4.7,10.5,10.5,10.5 s10.5-4.7,10.5-10.5C956.6,118.4,956.5,117.4,956.2,116.5z"></path> <circle class="st1" cx="946.2" cy="119.5" r="10.5"></circle> <circle class="st53" cx="955.7" cy="143.4" r="7.2"></circle> <path class="st49" d="M962.6,141.3c-0.9,2.9-3.6,5.1-6.9,5.1s-6-2.1-6.9-5.1c-0.2,0.7-0.3,1.4-0.3,2.1c0,4,3.2,7.2,7.2,7.2 c4,0,7.2-3.2,7.2-7.2C962.9,142.6,962.8,141.9,962.6,141.3z"></path> <circle class="st1" cx="955.7" cy="143.4" r="7.2"></circle> <circle class="st50" cx="993.1" cy="133.4" r="5.5"></circle> <path class="st51" d="M998.4,131.7c-0.7,2.3-2.8,3.9-5.3,3.9s-4.6-1.7-5.3-3.9c-0.2,0.5-0.2,1-0.2,1.6c0,3.1,2.5,5.5,5.5,5.5 s5.5-2.5,5.5-5.5C998.7,132.8,998.6,132.3,998.4,131.7z"></path> <circle class="st1" cx="993.1" cy="133.4" r="5.5"></circle> <circle class="st27" cx="935.7" cy="167.4" r="5.4"></circle> <path class="st28" d="M940.8,165.8c-0.7,2.2-2.7,3.8-5.1,3.8c-2.4,0-4.5-1.6-5.1-3.8c-0.1,0.5-0.2,1-0.2,1.6c0,3,2.4,5.4,5.4,5.4 c3,0,5.4-2.4,5.4-5.4C941.1,166.9,941,166.3,940.8,165.8z"></path> <circle class="st1" cx="935.7" cy="167.4" r="5.4"></circle> <circle class="st53" cx="919.1" cy="184.5" r="5.4"></circle> <path class="st49" d="M924.2,183c-0.7,2.2-2.7,3.8-5.1,3.8c-2.4,0-4.5-1.6-5.1-3.8c-0.2,0.5-0.2,1-0.2,1.6c0,3,2.4,5.4,5.4,5.4 c3,0,5.4-2.4,5.4-5.4C924.5,184,924.4,183.5,924.2,183z"></path> <circle class="st1" cx="919.1" cy="184.5" r="5.4"></circle> <circle class="st27" cx="928.8" cy="97.3" r="5.4"></circle> <path class="st28" d="M933.9,95.8c-0.7,2.2-2.7,3.8-5.1,3.8c-2.4,0-4.5-1.6-5.1-3.8c-0.2,0.5-0.2,1-0.2,1.6c0,3,2.4,5.4,5.4,5.4 c3,0,5.4-2.4,5.4-5.4C934.2,96.8,934.1,96.3,933.9,95.8z"></path> <circle class="st1" cx="928.8" cy="97.3" r="5.4"></circle> <path class="st5" d="M870.1,377.3c3.1,1.7,3.1,4.5,0,6.2c-3.1,1.7-8.1,1.7-11.2,0c-3.1-1.7-3.1-4.5,0-6.2 C862,375.5,867,375.5,870.1,377.3z"></path> <path class="st5" d="M1019.4,375.9c3.1,1.7,3.1,4.5,0,6.2c-3.1,1.7-8.1,1.7-11.2,0c-3.1-1.7-3.1-4.5,0-6.2 C1011.2,374.2,1016.2,374.2,1019.4,375.9z"></path> <path class="st54" d="M1112.4,167.1c-0.2-0.1-0.4-0.1-0.5,0l-32.9,19.2c-0.2,0.1-0.3,0.3-0.3,0.5s0.1,0.4,0.3,0.5l17.3,10 c0.2,0.1,0.4,0.1,0.5,0l32.9-19.2c0.2-0.1,0.3-0.3,0.3-0.5s-0.1-0.4-0.3-0.5L1112.4,167.1z"></path> <path class="st55" d="M1167.1,125.6l-11.4,6.7l-0.2,72.5l0,0l0,0c0,0.5,0,1.1-0.3,1.6c-0.2,0.5-0.6,0.9-1,1.2l11.4-6.7 c0.4-0.3,0.8-0.7,1-1.2c0.2-0.5,0.3-1,0.3-1.6v0L1167.1,125.6z"></path> <path class="st14" d="M1155.7,132.2l-0.3-0.4c-0.2,0.1-0.2,0.3-0.2,0.4L1155.7,132.2z M1167.1,125.6l0.5,0c0-0.2-0.1-0.3-0.3-0.4 c-0.2-0.1-0.3-0.1-0.5,0L1167.1,125.6z M1155.5,204.7l-0.5,0c0,0.2,0.1,0.3,0.2,0.4c0.1,0.1,0.3,0.1,0.5,0.1L1155.5,204.7z M1155.5,204.7l0.3,0.4c0.2-0.1,0.3-0.4,0.2-0.6c-0.1-0.2-0.4-0.3-0.6-0.2L1155.5,204.7z M1155.5,204.7l-0.3-0.4 c-0.2,0.1-0.3,0.3-0.2,0.5L1155.5,204.7z M1155.2,206.3l0.5,0.2l0,0L1155.2,206.3z M1154.2,207.5l-0.3-0.4 c-0.2,0.2-0.3,0.5-0.1,0.7c0.1,0.2,0.4,0.3,0.7,0.2L1154.2,207.5z M1165.6,200.8l0.3,0.4c0,0,0,0,0,0L1165.6,200.8z M1166.6,199.6 l-0.5-0.2L1166.6,199.6z M1166.9,198.1l-0.3-0.4c-0.1,0.1-0.2,0.3-0.2,0.4L1166.9,198.1z M1166.9,198.1l0.3,0.4 c0.1-0.1,0.2-0.2,0.2-0.4L1166.9,198.1z M1155.9,132.7l11.4-6.7l-0.5-0.9l-11.4,6.7L1155.9,132.7z M1156,204.7l0.2-72.5l-1,0 l-0.2,72.5L1156,204.7z M1155.3,204.3L1155.3,204.3l0.3,0.9l0,0L1155.3,204.3z M1155.8,205.2L1155.8,205.2l-0.5-0.9l0,0 L1155.8,205.2z M1155.7,206.5c0.3-0.6,0.4-1.2,0.3-1.8l-1,0.1c0,0.4,0,0.9-0.2,1.3L1155.7,206.5z M1154.5,207.9 c0.5-0.4,0.9-0.8,1.2-1.4l-0.9-0.4c-0.2,0.4-0.5,0.8-0.8,1L1154.5,207.9z M1165.4,200.4l-11.4,6.7l0.5,0.9l11.4-6.7L1165.4,200.4z M1166.2,199.4c-0.2,0.4-0.5,0.8-0.8,1l0.6,0.8c0.5-0.4,0.9-0.9,1.2-1.4L1166.2,199.4z M1166.4,198.1c0,0.4,0,0.9-0.2,1.3l0.9,0.4 c0.3-0.6,0.4-1.2,0.3-1.8L1166.4,198.1z M1166.6,197.7L1166.6,197.7l0.6,0.8h0L1166.6,197.7z M1166.6,125.6l-0.2,72.5l1,0l0.2-72.5 L1166.6,125.6z"></path> <path class="st55" d="M1073.7,67.8l-11.4,6.7c0.5-0.2,1-0.3,1.6-0.3c0.5,0.1,1,0.2,1.5,0.6l3.6,2.1l82.5,47.9l11.4-6.7l-86.1-50 l0,0l0,0c-0.4-0.3-0.9-0.5-1.5-0.6C1074.7,67.5,1074.2,67.6,1073.7,67.8z"></path> <path class="st14" d="M1062.3,74.5L1062,74l0.5,0.9L1062.3,74.5z M1073.7,67.8l-0.2-0.5l0,0l0,0L1073.7,67.8z M1065.3,74.8 l-0.3,0.4l0,0l0,0L1065.3,74.8z M1068.9,76.9l0.3-0.4l0,0L1068.9,76.9z M1151.4,124.8l-0.3,0.4l0.3,0.1l0.3-0.1L1151.4,124.8z M1162.8,118.1l0.3,0.4l0.7-0.4l-0.7-0.4L1162.8,118.1z M1076.7,68.1l0.3-0.4l-0.3-0.1l-0.3,0.1L1076.7,68.1z M1076.7,68.1 l-0.3,0.4l0.3,0.2l0.3-0.1L1076.7,68.1z M1076.7,68.1l-0.3,0.4l0,0l0,0L1076.7,68.1z M1075.2,67.6l0.1-0.5L1075.2,67.6z M1062.5,74.9l11.4-6.7l-0.5-0.9L1062,74L1062.5,74.9z M1063.9,73.7c-0.6-0.1-1.2,0-1.8,0.3l0.4,0.9c0.4-0.2,0.9-0.3,1.3-0.2 L1063.9,73.7z M1065.6,74.4c-0.5-0.4-1.1-0.6-1.7-0.7l-0.1,1c0.4,0,0.9,0.2,1.2,0.5L1065.6,74.4z M1069.2,76.4l-3.6-2.1l-0.5,0.9 l3.6,2.1L1069.2,76.4z M1151.7,124.3l-82.5-47.9l-0.5,0.9l82.5,47.9L1151.7,124.3z M1162.6,117.7l-11.4,6.7l0.5,0.9l11.4-6.7 L1162.6,117.7z M1076.5,68.5l86.1,50l0.5-0.9l-86.1-50L1076.5,68.5z M1077,68.6L1077,68.6l-0.5-0.9l0,0L1077,68.6z M1076.4,68.5 L1076.4,68.5l0.5-0.9l0,0L1076.4,68.5z M1075.2,68.1c0.4,0,0.9,0.2,1.2,0.5l0.6-0.8c-0.5-0.4-1.1-0.6-1.7-0.7L1075.2,68.1z M1073.9,68.3c0.4-0.2,0.9-0.3,1.3-0.2l0.1-1c-0.6-0.1-1.2,0-1.8,0.3L1073.9,68.3z"></path> <path class="st56" d="M1151.4,124.8c1.3,0.8,2.3,1.9,3,3.2c0.7,1.3,1.2,2.8,1.3,4.3l-0.2,72.5c0,2.7-1.9,3.8-4.3,2.5l-86.1-50 c-1.2-0.8-2.3-1.9-3-3.2c-0.7-1.3-1.2-2.8-1.3-4.2l0.2-72.5c0-2.7,1.9-3.9,4.3-2.5L1151.4,124.8z"></path> <defs> <filter id="Adobe_OpacityMaskFilter_00000002351252297217140920000005732937793779294632_" filterUnits="userSpaceOnUse" x="1053" y="73.7" width="156.1" height="134.6"> <feColorMatrix type="matrix" values="1 0 0 0 0 0 1 0 0 0 0 0 1 0 0 0 0 0 1 0"></feColorMatrix> </filter> </defs> <mask maskUnits="userSpaceOnUse" x="1053" y="73.7" width="156.1" height="134.6" id="mask1_2003_2265_00000053527605298272262710000015955409302863150484_"> <path style="fill:#F5F7FA;filter:url(#Adobe_OpacityMaskFilter_00000002351252297217140920000005732937793779294632_);stroke:#000000;" d=" M1151.4,124.8c1.3,0.8,2.3,1.9,3,3.2c0.7,1.3,1.2,2.8,1.3,4.3l-0.2,72.5c0,2.7-1.9,3.8-4.3,2.5l-86.1-50c-1.2-0.8-2.3-1.9-3-3.2 c-0.7-1.3-1.2-2.8-1.3-4.2l0.2-72.5c0-2.7,1.9-3.9,4.3-2.5L1151.4,124.8z"></path> </mask> <g class="st58"> <path class="st59" d="M1143.5,110.8l-73.4,42.4 M1159.6,120.1l-73.4,42.4 M1175.8,129.4l-73.4,42.4 M1191.9,138.7l-73.4,42.4 M1193.4,156.5l-80.7-46.6 M1178.7,165l-80.7-46.6 M1164,173.4l-80.7-46.6 M1149.3,181.9l-80.7-46.6 M1127.3,101.4l-73.4,42.4 l80.7,46.6L1208,148L1127.3,101.4z"></path> <path class="st1" d="M1151.4,124.8c1.3,0.8,2.3,1.9,3,3.2c0.7,1.3,1.2,2.8,1.3,4.3l-0.2,72.5c0,2.7-1.9,3.8-4.3,2.5l-86.1-50 c-1.2-0.8-2.3-1.9-3-3.2c-0.7-1.3-1.2-2.8-1.3-4.2l0.2-72.5c0-2.7,1.9-3.9,4.3-2.5L1151.4,124.8z"></path> </g> <path class="st60" d="M1155.7,142.7l11.4-6.6"></path> <path class="st61" d="M1167.1,136.1l-11.4,6.6l0-10.5c-0.1-1.5-0.5-3-1.3-4.3c-0.7-1.3-1.8-2.4-3-3.2l11.4-6.7 c1.2,0.8,2.3,1.9,3,3.2c0.7,1.3,1.2,2.8,1.3,4.2V136.1z"></path> <path class="st14" d="M1155.7,142.7l-0.5,0l0,0.9l0.7-0.4L1155.7,142.7z M1167.1,136.1l0.3,0.4l0.2-0.1v-0.3H1167.1z M1151.4,124.8 l-0.3-0.4c-0.1,0.1-0.2,0.2-0.2,0.4c0,0.2,0.1,0.3,0.2,0.4L1151.4,124.8z M1162.8,118.1l0.3-0.4c-0.2-0.1-0.4-0.1-0.5,0 L1162.8,118.1z M1165.8,121.3l0.4-0.2l0,0L1165.8,121.3z M1167.1,125.6h0.5c0,0,0,0,0,0L1167.1,125.6z M1155.7,132.2l0.5,0 c0,0,0,0,0,0L1155.7,132.2z M1154.4,128l-0.4,0.2L1154.4,128z M1156,143.2l11.4-6.6l-0.5-0.9l-11.4,6.6L1156,143.2z M1151.7,125.2 l11.4-6.7l-0.5-0.9l-11.4,6.7L1151.7,125.2z M1162.5,118.5c1.2,0.8,2.2,1.8,2.9,3l0.9-0.5c-0.8-1.4-1.9-2.5-3.2-3.4L1162.5,118.5z M1165.4,121.6c0.7,1.2,1.1,2.6,1.2,4l1-0.1c-0.1-1.6-0.5-3.1-1.3-4.5L1165.4,121.6z M1156.2,132.2c-0.1-1.6-0.5-3.1-1.3-4.5 l-0.9,0.5c0.7,1.2,1.1,2.6,1.2,4L1156.2,132.2z M1154.9,127.7c-0.8-1.4-1.9-2.5-3.2-3.4l-0.5,0.8c1.2,0.8,2.2,1.8,2.9,3 L1154.9,127.7z M1155.2,132.2l0,10.5l1,0l0-10.5L1155.2,132.2z M1166.6,125.6v10.6h1v-10.6H1166.6z"></path> <path class="st7" d="M1151.4,124.8l11.4-6.7c1.2,0.8,2.3,1.9,3,3.2c0.7,1.3,1.2,2.8,1.3,4.2l-11.4,6.7c-0.1-1.5-0.5-3-1.3-4.3 C1153.7,126.7,1152.7,125.6,1151.4,124.8z"></path> <path class="st62" d="M1112.4,134.4c-0.2-0.1-0.3-0.1-0.5,0l-32.9,19.2c-0.2,0.1-0.3,0.3-0.3,0.4c0,0.2,0.1,0.3,0.3,0.4l17.3,10 c0.2,0.1,0.3,0.1,0.5,0l32.9-19.2c0.2-0.1,0.3-0.3,0.3-0.4c0-0.2-0.1-0.3-0.3-0.4L1112.4,134.4z"></path> <path class="st41" d="M1127.6,125.7l-32.9,19.2l-17.3-10l32.9-19.2L1127.6,125.7z"></path> <path class="st63" d="M1127.6,125.7l0,12.6l-32.9,19.2l0-12.6L1127.6,125.7z"></path> <path class="st64" d="M1094.8,144.9l0,12.6l-17.3-10.1l0-12.6L1094.8,144.9z"></path> <path class="st9" d="M1102.6,131.7v3.2c0,1-0.6,1.9-1.9,2.6c-2.5,1.5-6.6,1.5-9.1,0c-1.3-0.7-1.9-1.7-1.9-2.7v-3.2 c0,1,0.6,1.9,1.9,2.7c2.5,1.5,6.6,1.5,9.1,0C1102,133.6,1102.6,132.7,1102.6,131.7z"></path> <path class="st64" d="M1100.7,129c2.5,1.5,2.5,3.8,0,5.3c-2.5,1.5-6.6,1.5-9.1,0c-2.5-1.5-2.5-3.8,0-5.3 C1094.1,127.6,1098.2,127.6,1100.7,129z"></path> <path class="st65" d="M1116.6,123.7v3.2c0,1-0.6,1.9-1.9,2.6c-2.5,1.5-6.6,1.5-9.1,0c-1.3-0.7-1.9-1.7-1.9-2.7v-3.2 c0,1,0.6,1.9,1.9,2.7c2.5,1.5,6.6,1.5,9.1,0C1115.9,125.6,1116.6,124.6,1116.6,123.7z"></path> <path class="st65" d="M1114.7,121c2.5,1.5,2.5,3.8,0,5.3c-2.5,1.5-6.6,1.5-9.1,0c-2.5-1.5-2.5-3.8,0-5.3 C1108.1,119.5,1112.1,119.5,1114.7,121z"></path> <path class="st41" d="M1116.4,119.7l-4.3,2.5l-17.3-10l4.3-2.5L1116.4,119.7z"></path> <path class="st9" d="M1116.5,119.7l10.7,6.3l-15.1,8.8l0-12.6L1116.5,119.7z"></path> <path class="st64" d="M1112.1,122.2l0,12.6l-17.3-10.1l0-12.6L1112.1,122.2z"></path> <path class="st11" d="M1152.6,115.7c1.5,0.8,1.5,2.2,0,3.1c-1.4,0.8-3.8,0.8-5.3,0c-1.5-0.8-1.5-2.2,0-3.1 C1148.8,114.9,1151.1,114.9,1152.6,115.7z"></path> <path class="st7" d="M1148.2,92.6l0,24.1c0,0.3,0.2,0.5,0.5,0.7c0.7,0.4,1.8,0.4,2.4,0c0.3-0.2,0.5-0.5,0.5-0.7l0-24.1 c0,0.3-0.2,0.5-0.5,0.7c-0.7,0.4-1.8,0.4-2.4,0C1148.4,93.1,1148.2,92.8,1148.2,92.6z"></path> <path class="st7" d="M1148.2,92.6c0-0.6,0.8-1,1.7-1c0.9,0,1.7,0.5,1.7,1c0,0.6-0.8,1-1.7,1C1149,93.6,1148.2,93.1,1148.2,92.6z"></path> <path class="st62" d="M1133.4,144.5c-0.2-0.1-0.4-0.1-0.5,0l-32.9,19.2c-0.2,0.1-0.3,0.3-0.3,0.4c0,0.2,0.1,0.3,0.3,0.4l17.3,10 c0.2,0.1,0.3,0.1,0.5,0l32.9-19.2c0.2-0.1,0.3-0.3,0.3-0.4c0-0.2-0.1-0.3-0.3-0.4L1133.4,144.5z"></path> <path class="st41" d="M1127.7,158.4l-32.9,19.2l-17.3-10l32.9-19.2L1127.7,158.4z"></path> <path class="st9" d="M1127.7,158.4l0,12.6l-32.9,19.2l0-12.6L1127.7,158.4z"></path> <path class="st64" d="M1094.8,177.6l0,12.6l-17.3-10.1l0-12.6L1094.8,177.6z"></path> <path class="st9" d="M1102.6,164.4v3.2c0,1-0.6,1.9-1.9,2.6c-2.5,1.5-6.6,1.5-9.1,0c-1.3-0.7-1.9-1.7-1.9-2.7v-3.2 c0,1,0.6,1.9,1.9,2.7c2.5,1.5,6.6,1.5,9.1,0C1102,166.3,1102.6,165.4,1102.6,164.4z"></path> <path class="st64" d="M1100.7,161.8c2.5,1.5,2.5,3.8,0,5.3c-2.5,1.5-6.6,1.5-9.1,0c-2.5-1.5-2.5-3.8,0-5.3 C1094.2,160.3,1098.2,160.3,1100.7,161.8z"></path> <path class="st65" d="M1116.6,156.4v3.2c0,1-0.6,1.9-1.9,2.6c-2.5,1.5-6.6,1.5-9.1,0c-1.3-0.7-1.9-1.7-1.9-2.7v-3.2 c0,1,0.6,1.9,1.9,2.7c2.5,1.5,6.6,1.5,9.1,0C1116,158.3,1116.6,157.4,1116.6,156.4z"></path> <path class="st65" d="M1114.7,153.8c2.5,1.5,2.5,3.8,0,5.3c-2.5,1.5-6.6,1.5-9.1,0c-2.5-1.5-2.5-3.8,0-5.3 C1108.1,152.3,1112.2,152.3,1114.7,153.8z"></path> <path class="st41" d="M1145,135.7l-32.9,19.2l-17.3-10l32.9-19.2L1145,135.7z"></path> <path class="st9" d="M1145,135.7l0,12.6l-32.9,19.2l0-12.6L1145,135.7z"></path> <path class="st64" d="M1112.1,154.9l0,12.6l-17.3-10.1l0-12.6L1112.1,154.9z"></path> <path class="st9" d="M1120,141.8v3.2c0,1-0.6,1.9-1.9,2.6c-2.5,1.5-6.6,1.5-9.1,0c-1.3-0.7-1.9-1.7-1.9-2.7v-3.2 c0,1,0.6,1.9,1.9,2.7c2.5,1.5,6.6,1.5,9.1,0C1119.3,143.7,1120,142.7,1120,141.8z"></path> <path class="st64" d="M1118.1,139.1c2.5,1.5,2.5,3.8,0,5.3c-2.5,1.5-6.6,1.5-9.1,0c-2.5-1.5-2.5-3.8,0-5.3 C1111.5,137.7,1115.6,137.7,1118.1,139.1z"></path> <path class="st9" d="M1133.9,133.8v3.2c0,1-0.6,1.9-1.9,2.6c-2.5,1.5-6.6,1.5-9.1,0c-1.3-0.7-1.9-1.7-1.9-2.7v-3.2 c0,1,0.6,1.9,1.9,2.7c2.5,1.5,6.6,1.5,9.1,0C1133.3,135.7,1133.9,134.7,1133.9,133.8z"></path> <path class="st64" d="M1132,131.1c2.5,1.5,2.5,3.8,0,5.3c-2.5,1.5-6.6,1.5-9.1,0c-2.5-1.5-2.5-3.8,0-5.3 C1125.4,129.6,1129.5,129.6,1132,131.1z"></path> <path class="st1" d="M1155.7,132.2l-0.2,72.5"></path> <path class="st1" d="M1154.4,128c-0.7-1.3-1.8-2.4-3-3.2l-86.1-50c-2.4-1.4-4.3-0.3-4.3,2.5l0,10.3l94.7,55l0-10.3 C1155.6,130.7,1155.2,129.3,1154.4,128z"></path> <path class="st18" d="M1154.4,128c-0.7-1.3-1.8-2.4-3-3.2l-86.1-50c-2.4-1.4-4.3-0.3-4.3,2.5l0,10.3l94.7,55l0-10.3 C1155.6,130.7,1155.2,129.3,1154.4,128z"></path> <circle class="st66" cx="1064.9" cy="81" r="2.8"></circle> <circle class="st67" cx="1072.9" cy="85.6" r="2.8"></circle> <circle class="st56" cx="1081" cy="90.3" r="2.8"></circle> </g> </svg> 