<?xml version="1.0" encoding="iso-8859-1"?>
<!-- Uploaded to: SVG Repo, www.svgrepo.com, Generator: SVG Repo Mixer Tools -->
<svg height="800px" width="800px" version="1.1" id="Layer_1" xmlns="http://www.w3.org/2000/svg" xmlns:xlink="http://www.w3.org/1999/xlink" 
	 viewBox="0 0 512 512" xml:space="preserve">
<path style="fill:#69539C;" d="M262.254,477.933H50.019c-9.81,0-17.762-7.953-17.762-17.762V247.937
	c0-9.81,7.953-17.762,17.762-17.762h212.235c9.81,0,17.762,7.953,17.762,17.762v212.235
	C280.017,469.982,272.064,477.933,262.254,477.933z"/>
<circle cx="105.142" cy="304.933" r="8.881"/>
<circle cx="156.132" cy="304.933" r="8.881"/>
<circle cx="133.171" cy="341.642" r="8.881"/>
<circle cx="184.161" cy="341.642" r="8.881"/>
<circle cx="133.171" cy="411.899" r="8.881"/>
<circle cx="184.161" cy="411.899" r="8.881"/>
<circle cx="210.828" cy="304.933" r="8.881"/>
<circle cx="105.142" cy="377.167" r="8.881"/>
<circle cx="156.132" cy="377.167" r="8.881"/>
<circle cx="210.828" cy="377.167" r="8.881"/>
<path style="fill:#F871FF;" d="M469.142,212.792H320.99c-9.81,0-17.762-7.953-17.762-17.762V46.879
	c0-9.81,7.953-17.762,17.762-17.762h148.152c9.81,0,17.762,7.953,17.762,17.762v148.152
	C486.904,204.839,478.951,212.792,469.142,212.792z"/>
<path d="M303.391,278.512c4.906,0,8.881-3.976,8.881-8.881c0-4.905-3.975-8.881-8.881-8.881h-14.493v-12.813
	c0-14.692-11.953-26.644-26.644-26.644h-13.016v-14.697c0-4.905-3.975-8.881-8.881-8.881s-8.881,3.976-8.881,8.881v14.697h-24.348
	v-14.697c0-4.905-3.975-8.881-8.881-8.881s-8.881,3.976-8.881,8.881v14.697h-24.349v-14.697c0-4.905-3.975-8.881-8.881-8.881
	s-8.881,3.976-8.881,8.881v14.697h-24.348v-14.697c0-4.905-3.975-8.881-8.881-8.881s-8.881,3.976-8.881,8.881v14.697H80.797v-14.697
	c0-4.905-3.975-8.881-8.881-8.881s-8.881,3.976-8.881,8.881v14.697H50.019c-14.691,0-26.644,11.952-26.644,26.644v12.813H8.881
	c-4.906,0-8.881,3.976-8.881,8.881c0,4.905,3.975,8.881,8.881,8.881h14.494v24.348H8.881c-4.906,0-8.881,3.976-8.881,8.881
	c0,4.905,3.975,8.881,8.881,8.881h14.494v24.348H8.881c-4.906,0-8.881,3.976-8.881,8.881c0,4.905,3.975,8.881,8.881,8.881h14.494
	v24.348H8.881c-4.906,0-8.881,3.976-8.881,8.881c0,4.905,3.975,8.881,8.881,8.881h14.494v24.348H8.881
	c-4.906,0-8.881,3.976-8.881,8.881c0,4.905,3.975,8.881,8.881,8.881h14.494v13.22c0,14.692,11.953,26.644,26.644,26.644h13.015
	v14.29c0,4.905,3.975,8.881,8.881,8.881c4.906,0,8.881-3.976,8.881-8.881v-14.29h24.349v14.29c0,4.905,3.975,8.881,8.881,8.881
	s8.881-3.976,8.881-8.881v-14.29h24.348v14.29c0,4.905,3.975,8.881,8.881,8.881c4.906,0,8.881-3.976,8.881-8.881v-14.29h24.349
	v14.29c0,4.905,3.975,8.881,8.881,8.881s8.881-3.976,8.881-8.881v-14.29h24.348v14.29c0,4.905,3.975,8.881,8.881,8.881
	s8.881-3.976,8.881-8.881v-14.29h13.016c14.691,0,26.644-11.952,26.644-26.644v-13.22h14.493c4.906,0,8.881-3.976,8.881-8.881
	c0-4.905-3.975-8.881-8.881-8.881h-14.493v-24.348h14.493c4.906,0,8.881-3.976,8.881-8.881c0-4.905-3.975-8.881-8.881-8.881h-14.493
	v-24.348h14.493c4.906,0,8.881-3.976,8.881-8.881c0-4.905-3.975-8.881-8.881-8.881h-14.493v-24.348h14.493
	c4.906,0,8.881-3.976,8.881-8.881c0-4.905-3.975-8.881-8.881-8.881h-14.493v-24.348H303.391z M271.135,302.86h-14.494
	c-4.906,0-8.881,3.976-8.881,8.881c0,4.905,3.975,8.881,8.881,8.881h14.494v24.348h-14.494c-4.906,0-8.881,3.976-8.881,8.881
	c0,4.905,3.975,8.881,8.881,8.881h14.494v24.348h-14.494c-4.906,0-8.881,3.976-8.881,8.881c0,4.905,3.975,8.881,8.881,8.881h14.494
	v24.348h-14.494c-4.906,0-8.881,3.976-8.881,8.881c0,4.905,3.975,8.881,8.881,8.881h14.494v13.22c0,4.898-3.984,8.881-8.881,8.881
	h-13.016v-14.698c0-4.905-3.975-8.881-8.881-8.881s-8.881,3.976-8.881,8.881v14.698h-24.348v-14.698
	c0-4.905-3.975-8.881-8.881-8.881s-8.881,3.976-8.881,8.881v14.698h-24.349v-14.698c0-4.905-3.975-8.881-8.881-8.881
	s-8.881,3.976-8.881,8.881v14.698h-24.348v-14.698c0-4.905-3.975-8.881-8.881-8.881s-8.881,3.976-8.881,8.881v14.698H80.797v-14.698
	c0-4.905-3.975-8.881-8.881-8.881s-8.881,3.976-8.881,8.881v14.698H50.019c-4.898,0-8.881-3.984-8.881-8.881v-13.22h14.493
	c4.906,0,8.881-3.976,8.881-8.881c0-4.905-3.975-8.881-8.881-8.881H41.138v-24.348h14.493c4.906,0,8.881-3.976,8.881-8.881
	c0-4.905-3.975-8.881-8.881-8.881H41.138v-24.348h14.493c4.906,0,8.881-3.976,8.881-8.881c0-4.905-3.975-8.881-8.881-8.881H41.138
	v-24.348h14.493c4.906,0,8.881-3.976,8.881-8.881c0-4.905-3.975-8.881-8.881-8.881H41.138v-24.348h14.493
	c4.906,0,8.881-3.976,8.881-8.881c0-4.905-3.975-8.881-8.881-8.881H41.138v-12.813c0-4.898,3.984-8.881,8.881-8.881h13.015v14.29
	c0,4.905,3.975,8.881,8.881,8.881s8.881-3.976,8.881-8.881v-14.29h24.349v14.29c0,4.905,3.975,8.881,8.881,8.881
	s8.881-3.976,8.881-8.881v-14.29h24.348v14.29c0,4.905,3.975,8.881,8.881,8.881c4.906,0,8.881-3.976,8.881-8.881v-14.29h24.349
	v14.29c0,4.905,3.975,8.881,8.881,8.881s8.881-3.976,8.881-8.881v-14.29h24.348v14.29c0,4.905,3.975,8.881,8.881,8.881
	s8.881-3.976,8.881-8.881v-14.29h13.016c4.898,0,8.881,3.984,8.881,8.881v12.813h-14.494c-4.906,0-8.881,3.976-8.881,8.881
	c0,4.905,3.975,8.881,8.881,8.881h14.494v24.348H271.135z"/>
<path d="M503.119,110.819c4.906,0,8.881-3.976,8.881-8.881s-3.975-8.881-8.881-8.881h-7.333V75.689h7.333
	c4.906,0,8.881-3.976,8.881-8.881s-3.975-8.881-8.881-8.881h-7.333V46.878c0-14.692-11.953-26.644-26.644-26.644h-12.5v-9.341
	c0-4.905-3.975-8.881-8.881-8.881c-4.906,0-8.881,3.976-8.881,8.881v9.342h-17.367v-9.342c0-4.905-3.975-8.881-8.881-8.881
	c-4.906,0-8.881,3.976-8.881,8.881v9.342h-17.368v-9.342c0-4.905-3.975-8.881-8.881-8.881c-4.906,0-8.881,3.976-8.881,8.881v9.342
	h-17.368v-9.342c0-4.905-3.975-8.881-8.881-8.881c-4.906,0-8.881,3.976-8.881,8.881v9.342H320.99
	c-14.691,0-26.644,11.952-26.644,26.644v11.048h-8.449c-4.906,0-8.881,3.976-8.881,8.881s3.975,8.881,8.881,8.881h8.449v17.368
	h-8.449c-4.906,0-8.881,3.976-8.881,8.881s3.975,8.881,8.881,8.881h8.449v17.368h-8.449c-4.906,0-8.881,3.976-8.881,8.881
	s3.975,8.881,8.881,8.881h8.449v17.368h-8.449c-4.906,0-8.881,3.976-8.881,8.881s3.975,8.881,8.881,8.881h8.449v13.951
	c0,14.692,11.953,26.644,26.644,26.644h12.499v6.439c0,4.905,3.975,8.881,8.881,8.881c4.906,0,8.881-3.976,8.881-8.881v-6.439
	h17.368v6.439c0,4.905,3.975,8.881,8.881,8.881c4.906,0,8.881-3.976,8.881-8.881v-6.439h17.368v6.439
	c0,4.905,3.975,8.881,8.881,8.881c4.906,0,8.881-3.976,8.881-8.881v-6.439h17.367v6.439c0,4.905,3.975,8.881,8.881,8.881
	c4.906,0,8.881-3.976,8.881-8.881v-6.439h12.5c14.691,0,26.644-11.952,26.644-26.644v-13.951h7.334c4.906,0,8.881-3.976,8.881-8.881
	s-3.975-8.881-8.881-8.881h-7.334v-17.368h7.334c4.906,0,8.881-3.976,8.881-8.881s-3.975-8.881-8.881-8.881h-7.334v-17.369H503.119z
	 M478.023,128.187h-9.562c-4.906,0-8.881,3.976-8.881,8.881s3.975,8.881,8.881,8.881h9.562v17.368h-9.562
	c-4.906,0-8.881,3.976-8.881,8.881s3.975,8.881,8.881,8.881h9.562v13.951c0,4.898-3.984,8.881-8.881,8.881h-12.5v-10.456
	c0-4.905-3.975-8.881-8.881-8.881c-4.906,0-8.881,3.976-8.881,8.881v10.456h-17.367v-10.456c0-4.905-3.975-8.881-8.881-8.881
	c-4.906,0-8.881,3.976-8.881,8.881v10.456h-17.368v-10.456c0-4.905-3.975-8.881-8.881-8.881c-4.906,0-8.881,3.976-8.881,8.881
	v10.456h-17.368v-10.456c0-4.905-3.975-8.881-8.881-8.881c-4.906,0-8.881,3.976-8.881,8.881v10.456H320.99
	c-4.898,0-8.881-3.984-8.881-8.881V181.08h8.448c4.906,0,8.881-3.976,8.881-8.881s-3.975-8.881-8.881-8.881h-8.448V145.95h8.448
	c4.906,0,8.881-3.976,8.881-8.881s-3.975-8.881-8.881-8.881h-8.448v-17.368h8.448c4.906,0,8.881-3.976,8.881-8.881
	s-3.975-8.881-8.881-8.881h-8.448V75.689h8.448c4.906,0,8.881-3.976,8.881-8.881s-3.975-8.881-8.881-8.881h-8.448V46.878
	c0-4.898,3.984-8.881,8.881-8.881h12.499v7.554c0,4.905,3.975,8.881,8.881,8.881c4.906,0,8.881-3.976,8.881-8.881v-7.554h17.368
	v7.554c0,4.905,3.975,8.881,8.881,8.881c4.906,0,8.881-3.976,8.881-8.881v-7.554h17.368v7.554c0,4.905,3.975,8.881,8.881,8.881
	c4.906,0,8.881-3.976,8.881-8.881v-7.554h17.367v7.554c0,4.905,3.975,8.881,8.881,8.881c4.906,0,8.881-3.976,8.881-8.881v-7.554
	h12.5c4.898,0,8.881,3.984,8.881,8.881v11.048h-9.562c-4.906,0-8.881,3.976-8.881,8.881s3.975,8.881,8.881,8.881h9.562v17.368
	h-9.562c-4.906,0-8.881,3.976-8.881,8.881s3.975,8.881,8.881,8.881h9.562L478.023,128.187L478.023,128.187z"/>
</svg>