<?xml version="1.0" encoding="UTF-8"?>
<svg version="1.1" xmlns="http://www.w3.org/2000/svg" width="460" height="460">
<path d="M0 0 C151.8 0 303.6 0 460 0 C460 151.8 460 303.6 460 460 C308.2 460 156.4 460 0 460 C0 308.2 0 156.4 0 0 Z " fill="#D33847" transform="translate(0,0)"/>
<path d="M0 0 C1.02061523 -0.02143066 2.04123047 -0.04286133 3.09277344 -0.06494141 C4.53571777 -0.07146729 4.53571777 -0.07146729 6.0078125 -0.078125 C7.30549561 -0.09214355 7.30549561 -0.09214355 8.62939453 -0.10644531 C10.875 0.25 10.875 0.25 12.65649414 1.40014648 C14.3952377 4.03978984 14.24705812 6.03057715 14.23828125 9.17578125 C14.23932861 10.357771 14.24037598 11.53976074 14.24145508 12.75756836 C14.2236499 14.0131958 14.20584473 15.26882324 14.1875 16.5625 C14.17549561 17.84326416 14.16349121 19.12402832 14.15112305 20.44360352 C14.02429884 28.90952441 13.67140146 36.95818907 11.875 45.25 C11.7296582 45.97010254 11.58431641 46.69020508 11.43457031 47.43212891 C9.15999924 58.58933131 6.008538 69.35719414 2.3125 80.125 C1.93665771 81.22424805 1.56081543 82.32349609 1.17358398 83.45605469 C-0.82268893 89.11573098 -3.00725321 94.13065976 -6.125 99.25 C-7.39761927 101.70789197 -8.59899751 104.19999143 -9.8125 106.6875 C-16.57720674 120.32194069 -24.09529532 133.10291638 -32.90283203 145.52099609 C-34.52116198 147.81045129 -36.10058233 150.12620108 -37.6875 152.4375 C-44.01206272 161.43142253 -50.76498078 170.08002652 -58.125 178.25 C-59.23059903 179.5195874 -60.33472351 180.79046014 -61.4375 182.0625 C-65.1538225 186.31693254 -68.97076579 190.47743962 -72.79296875 194.63671875 C-74.28195892 196.30528562 -75.72790027 198.01398954 -77.11328125 199.76953125 C-81.57700782 205.27334944 -86.96509121 209.97151546 -92.125 214.8125 C-93.17300781 215.8015332 -93.17300781 215.8015332 -94.2421875 216.81054688 C-97.08994679 219.48367941 -99.83628973 222.04013588 -103 224.33984375 C-108.02512374 228.8569127 -108.00322521 236.94722896 -109 243.3125 C-110.32015928 251.45213239 -111.6771853 259.58077186 -113.1875 267.6875 C-113.33751465 268.51967041 -113.4875293 269.35184082 -113.64208984 270.20922852 C-116.58974438 285.81473719 -116.58974438 285.81473719 -122.8125 290.875 C-123.69550781 291.61492187 -124.57851562 292.35484375 -125.48828125 293.1171875 C-126.35839844 293.82101562 -127.22851562 294.52484375 -128.125 295.25 C-133.43859263 299.66223383 -133.43859263 299.66223383 -138.0625 304.75 C-140.08428858 307.20065283 -142.03365659 308.78670816 -144.5625 310.6875 C-148.348042 313.54206995 -151.12783229 316.56117821 -154.125 320.25 C-156.72626056 322.66225884 -159.4198867 324.95570998 -162.125 327.25 C-162.455 327.58 -162.785 327.91 -163.125 328.25 C-164.79117115 328.29063832 -166.45888095 328.292721 -168.125 328.25 C-170.85818069 322.32138373 -173.25987114 316.36228097 -175.375 310.1875 C-175.66366943 309.34767578 -175.95233887 308.50785156 -176.24975586 307.64257812 C-176.87313745 305.82464426 -177.49474052 304.00609975 -178.11474609 302.18701172 C-179.19878658 299.03548753 -180.31178481 295.8949576 -181.42578125 292.75390625 C-182.18046496 290.58620802 -182.93438458 288.4182436 -183.6875 286.25 C-184.05842773 285.21738037 -184.42935547 284.18476074 -184.81152344 283.12084961 C-185.14313477 282.15284424 -185.47474609 281.18483887 -185.81640625 280.1875 C-186.11748291 279.33027344 -186.41855957 278.47304688 -186.72875977 277.58984375 C-187.21461223 274.72082959 -186.72451523 273.63681455 -185.125 271.25 C-181.69642857 268.25 -181.69642857 268.25 -179.125 268.25 C-179.125 267.59 -179.125 266.93 -179.125 266.25 C-177.56871556 264.9010255 -175.95363873 263.61935411 -174.3125 262.375 C-171.04519753 259.89505614 -168.4267185 257.66051977 -166.125 254.25 C-178.49223864 261.26224393 -178.49223864 261.26224393 -189.203125 270.46875 C-193.90052341 273.33240464 -198.67884946 272.74757563 -204.0625 272.625 C-205.13435547 272.62371094 -206.20621094 272.62242187 -207.31054688 272.62109375 C-212.72797801 272.56071371 -216.99582373 272.08240801 -222.125 270.25 C-226.52497846 270.60443897 -228.40071679 272.07743125 -231.375 275.25 C-232.53515625 276.4565625 -232.53515625 276.4565625 -233.71875 277.6875 C-234.5128125 278.533125 -235.306875 279.37875 -236.125 280.25 C-237.69863879 281.92582313 -239.28164538 283.5929112 -240.875 285.25 C-241.57109375 285.9925 -242.2671875 286.735 -242.984375 287.5 C-245.42250466 289.49321549 -247.00959608 289.99540994 -250.125 290.25 C-251.8984375 289.31640625 -251.8984375 289.31640625 -253.5 287.8125 C-254.09425781 287.25691406 -254.68851563 286.70132812 -255.30078125 286.12890625 C-257.77726554 283.57818046 -260.11194704 280.92712113 -262.4140625 278.21875 C-264.84982931 275.41594984 -267.46784098 272.84235026 -270.125 270.25 C-268.74148216 265.83517903 -266.76048342 263.70838959 -263.25 260.75 C-259.77178331 257.80130287 -256.90754299 254.86252898 -254.125 251.25 C-252.81005488 249.89852862 -251.48235142 248.55887458 -250.125 247.25 C-250.63160156 246.30640625 -250.63160156 246.30640625 -251.1484375 245.34375 C-255.77009902 236.47443424 -258.45719544 228.40006051 -257.125 218.25 C-255.25 215.0625 -255.25 215.0625 -253.125 213.25 C-252.465 213.25 -251.805 213.25 -251.125 213.25 C-250.8671875 212.69441406 -250.609375 212.13882813 -250.34375 211.56640625 C-248.96166175 208.93955262 -247.34620938 206.60521572 -245.625 204.1875 C-243.75918777 201.55876031 -241.91332004 198.93248007 -240.125 196.25 C-240.67929688 196.7553125 -241.23359375 197.260625 -241.8046875 197.78125 C-242.52914062 198.4309375 -243.25359375 199.080625 -244 199.75 C-244.71929687 200.3996875 -245.43859375 201.049375 -246.1796875 201.71875 C-248.125 203.25 -248.125 203.25 -250.125 203.25 C-250.38796875 203.82105469 -250.6509375 204.39210938 -250.921875 204.98046875 C-252.20926013 207.40894524 -253.64308041 209.42880627 -255.375 211.5625 C-255.93703125 212.28050781 -256.4990625 212.99851562 -257.078125 213.73828125 C-259.125 215.25 -259.125 215.25 -261.76953125 215.14453125 C-263.43048828 214.70173828 -263.43048828 214.70173828 -265.125 214.25 C-265.81094238 214.06961182 -266.49688477 213.88922363 -267.20361328 213.70336914 C-269.66583608 213.04022096 -272.11399624 212.3371046 -274.5625 211.625 C-275.46758301 211.36356201 -276.37266602 211.10212402 -277.30517578 210.83276367 C-284.38074085 208.77858688 -291.44463736 206.68496977 -298.5 204.5625 C-299.45575928 204.27745605 -300.41151855 203.99241211 -301.39624023 203.69873047 C-306.46655372 202.15960045 -311.30263212 200.44862778 -316.125 198.25 C-315.72628776 193.05701616 -313.01769668 190.33180088 -309.6875 186.625 C-305.6948141 182.10628715 -305.6948141 182.10628715 -302.125 177.25 C-301.465 177.25 -300.805 177.25 -300.125 177.25 C-299.83625 176.651875 -299.5475 176.05375 -299.25 175.4375 C-298.125 173.25 -298.125 173.25 -296.125 170.25 C-295.465 170.25 -294.805 170.25 -294.125 170.25 C-293.71701172 169.38181641 -293.71701172 169.38181641 -293.30078125 168.49609375 C-290.23514021 162.63980273 -285.82558166 157.83593333 -281.125 153.25 C-280.70605469 152.6209375 -280.28710938 151.991875 -279.85546875 151.34375 C-274.80526811 144.20151373 -267.90622628 142.88969794 -259.859375 140.93017578 C-256.77843772 140.16379263 -253.718316 139.33466598 -250.65625 138.49609375 C-246.23583648 137.28628641 -241.81416247 136.08228783 -237.38671875 134.8984375 C-236.35716064 134.62298096 -235.32760254 134.34752441 -234.2668457 134.0637207 C-230.06341022 132.9750541 -225.83644697 131.99073553 -221.60302734 131.02563477 C-217.11085273 129.61956198 -215.09902911 126.58478063 -212.4375 122.9375 C-211.7878125 122.1021875 -211.7878125 122.1021875 -211.125 121.25 C-210.465 121.25 -209.805 121.25 -209.125 121.25 C-208.856875 120.67765625 -208.58875 120.1053125 -208.3125 119.515625 C-207.08367364 117.17115366 -205.69977824 115.12595062 -204.125 113 C-203.609375 112.29359375 -203.09375 111.5871875 -202.5625 110.859375 C-202.088125 110.32828125 -201.61375 109.7971875 -201.125 109.25 C-200.465 109.25 -199.805 109.25 -199.125 109.25 C-198.856875 108.66734375 -198.58875 108.0846875 -198.3125 107.484375 C-197.11019009 105.22213399 -195.78674087 103.44423682 -194.125 101.5 C-193.609375 100.88640625 -193.09375 100.2728125 -192.5625 99.640625 C-191.125 98.25 -191.125 98.25 -189.125 98.25 C-188.63 96.765 -188.63 96.765 -188.125 95.25 C-187.465 95.25 -186.805 95.25 -186.125 95.25 C-185.795 94.26 -185.465 93.27 -185.125 92.25 C-184.465 92.25 -183.805 92.25 -183.125 92.25 C-182.79435547 91.41662109 -182.79435547 91.41662109 -182.45703125 90.56640625 C-180.69121824 87.49565224 -178.44595102 85.55586191 -175.8125 83.1875 C-175.28922119 82.71650879 -174.76594238 82.24551758 -174.22680664 81.76025391 C-172.53499116 80.24656382 -170.83238103 78.74610455 -169.125 77.25 C-168.53525391 76.7329248 -167.94550781 76.21584961 -167.33789062 75.68310547 C-165.58633223 74.15550588 -163.82679619 72.63786207 -162.0625 71.125 C-161.51489014 70.6518335 -160.96728027 70.17866699 -160.40307617 69.69116211 C-157.97490519 67.6346306 -156.17640715 66.26713572 -153.125 65.25 C-153.125 64.59 -153.125 63.93 -153.125 63.25 C-151.74958082 62.28742048 -150.36570854 61.33526806 -148.94775391 60.43652344 C-145.60721149 58.26199409 -142.48423761 55.78601793 -139.3125 53.375 C-130.8800853 47.02263165 -122.23841585 41.28396098 -113.25 35.75 C-112.51861816 35.29874756 -111.78723633 34.84749512 -111.03369141 34.38256836 C-93.26740529 23.53584503 -74.17055907 14.02329271 -54.125 8.25 C-53.03880371 7.92974854 -53.03880371 7.92974854 -51.93066406 7.60302734 C-34.55912931 2.49353819 -18.1062301 0.2157505 0 0 Z " fill="#FEFEFD" transform="translate(370.125,75.75)"/>
<path d="M0 0 C0 0.66 0 1.32 0 2 C0.99 2.33 1.98 2.66 3 3 C3 3.66 3 4.32 3 5 C3.99 5.33 4.98 5.66 6 6 C12.88053426 15.17404568 12.95742541 23.94198715 12 35 C9.59199517 47.49724026 0.67765995 59.50761008 -9.56640625 66.8359375 C-21.70855914 74.84063913 -32.44347287 78.38033013 -47 77 C-50.36397407 76.1094066 -53.08721284 74.88514496 -56 73 C-56.845625 72.46375 -57.69125 71.9275 -58.5625 71.375 C-59.036875 70.92125 -59.51125 70.4675 -60 70 C-60 69.34 -60 68.68 -60 68 C-60.99 67.67 -61.98 67.34 -63 67 C-64.5703125 64.8203125 -64.5703125 64.8203125 -66.125 62.125 C-66.64320313 61.24070312 -67.16140625 60.35640625 -67.6953125 59.4453125 C-71.6327057 52.0656474 -71.19762603 41.54271943 -69.09375 33.5625 C-67.88565696 30.5887325 -66.54484731 27.81282589 -65 25 C-64.47277344 24.02417969 -63.94554687 23.04835937 -63.40234375 22.04296875 C-60.60206074 17.12355266 -60.60206074 17.12355266 -59 15 C-58.34 15 -57.68 15 -57 15 C-56.731875 14.401875 -56.46375 13.80375 -56.1875 13.1875 C-55.00082594 11.00152146 -53.90400887 9.58667406 -52 8 C-51.34 8 -50.68 8 -50 8 C-50 7.34 -50 6.68 -50 6 C-48.68 5.67 -47.36 5.34 -46 5 C-46 4.34 -46 3.68 -46 3 C-43.58535319 1.84973914 -41.16846682 0.70467795 -38.75 -0.4375 C-38.06808594 -0.76298828 -37.38617188 -1.08847656 -36.68359375 -1.42382812 C-36.01972656 -1.73642578 -35.35585937 -2.04902344 -34.671875 -2.37109375 C-34.0644043 -2.65911865 -33.45693359 -2.94714355 -32.83105469 -3.24389648 C-22.10632967 -7.67249294 -9.68740401 -5.74676509 0 0 Z " fill="#D22F3F" transform="translate(286,169)"/>
<path d="M0 0 C3.01065738 1.05022932 4.10465798 2.21854269 6.08203125 4.69140625 C7.99833281 7.04799591 9.72468922 9.05841947 12.01953125 11.06640625 C13.51953125 12.87890625 13.51953125 12.87890625 13.32055664 15.25830078 C12.41382314 18.22473706 11.40694025 19.46960575 9.203125 21.62109375 C8.17928711 22.63236328 8.17928711 22.63236328 7.13476562 23.6640625 C6.41611328 24.35371094 5.69746094 25.04335938 4.95703125 25.75390625 C4.26544922 26.43582031 3.57386719 27.11773437 2.86132812 27.8203125 C-0.47274495 31.08291896 -3.86390691 34.24153389 -7.40234375 37.28125 C-12.2382451 41.46281592 -16.68526128 46.01293781 -21.16796875 50.56640625 C-22.81528857 52.23936529 -24.46495461 53.91001798 -26.1171875 55.578125 C-26.83608154 56.30862061 -27.55497559 57.03911621 -28.2956543 57.79174805 C-30.48046875 59.87890625 -30.48046875 59.87890625 -33.13208008 61.99536133 C-35.57309425 63.81083065 -35.57309425 63.81083065 -37.41796875 66.31640625 C-39.81450424 69.29392004 -42.52305292 71.46468924 -45.48046875 73.87890625 C-46.26421875 74.66265625 -47.04796875 75.44640625 -47.85546875 76.25390625 C-49.96330301 78.36174051 -52.08699806 80.26756861 -54.35546875 82.19140625 C-57.09822784 84.56061793 -59.52027382 86.98361604 -61.85546875 89.75390625 C-65.29789417 93.82150778 -69.1437836 97.29434414 -73.1484375 100.80078125 C-75.51930394 102.77004053 -75.51930394 102.77004053 -77.140625 105.12890625 C-80.97204725 107.99447748 -85.09424394 107.29773236 -89.73046875 107.12890625 C-90.66632813 107.11085938 -91.6021875 107.0928125 -92.56640625 107.07421875 C-94.8721389 107.02716298 -97.1757782 106.96144338 -99.48046875 106.87890625 C-100.24610575 102.02278271 -100.43178283 97.72014859 -99.48046875 92.87890625 C-96.56899598 89.03802154 -93.04126658 86.27515991 -89.26513672 83.34863281 C-85.43958969 80.19818232 -82.10313392 76.50746823 -78.67114258 72.94116211 C-77.30929109 71.55184115 -75.89883666 70.21047851 -74.48046875 68.87890625 C-73.82046875 68.87890625 -73.16046875 68.87890625 -72.48046875 68.87890625 C-71.98546875 67.39390625 -71.98546875 67.39390625 -71.48046875 65.87890625 C-70.82046875 65.87890625 -70.16046875 65.87890625 -69.48046875 65.87890625 C-68.98546875 64.39390625 -68.98546875 64.39390625 -68.48046875 62.87890625 C-67.16015625 61.58203125 -67.16015625 61.58203125 -65.35546875 60.12890625 C-60.24787075 55.81705721 -55.61329372 51.06577869 -50.93701172 46.29785156 C-48.09708576 43.42011922 -45.26542868 40.63090707 -42.13671875 38.06640625 C-39.44653875 36.00844207 -39.44653875 36.00844207 -37.60546875 33.50390625 C-35.22031514 30.55754003 -32.57334936 28.29572401 -29.69921875 25.83984375 C-25.22587095 21.88628636 -21.06121463 17.58410434 -16.94140625 13.265625 C-14.5951074 10.82576209 -12.48284713 9.38009544 -9.48046875 7.87890625 C-9.15046875 6.88890625 -8.82046875 5.89890625 -8.48046875 4.87890625 C-3.4339222 -0.1676403 -3.4339222 -0.1676403 0 0 Z " fill="#E899A1" transform="translate(99.48046875,353.12109375)"/>
<path d="M0 0 C5.42857143 -0.36190476 5.42857143 -0.36190476 7.875 1.1875 C9.51651306 3.83215994 9.71370414 4.9310722 9 8 C7.35008311 9.70577345 5.61410395 11.13329534 3.7265625 12.5703125 C1.74439829 14.07239724 1.74439829 14.07239724 0 17 C-0.66 17 -1.32 17 -2 17 C-2.495 18.485 -2.495 18.485 -3 20 C-4.53125 21.5078125 -4.53125 21.5078125 -6.5 23.125 C-10.63376194 26.60959716 -14.3783149 30.37562826 -18.1171875 34.27734375 C-20 36 -20 36 -22 36 C-22.33 36.99 -22.66 37.98 -23 39 C-23.66 39 -24.32 39 -25 39 C-25.22042969 39.55816406 -25.44085938 40.11632812 -25.66796875 40.69140625 C-27.42422622 43.73524252 -29.67550536 45.62165491 -32.3125 47.9375 C-36.7980469 51.89677537 -41.07565528 55.96569273 -45.1875 60.3125 C-47 62 -47 62 -49 62 C-49 62.66 -49 63.32 -49 64 C-50.46470713 65.23168554 -51.93360878 66.45896003 -53.4296875 67.65234375 C-55.16900144 69.05774853 -55.16900144 69.05774853 -56.875 71.375 C-59.85434325 75.0553652 -63.38467246 77.95952339 -67 81 C-67.61101562 81.51433594 -68.22203125 82.02867187 -68.8515625 82.55859375 C-70.22967314 83.7113735 -71.61408239 84.85661797 -73 86 C-74.77725243 73.95417794 -74.77725243 73.95417794 -71.90283203 69.17626953 C-67.97126239 64.3883999 -63.10395459 60.64969167 -58.25 56.84375 C-55.96688571 54.97286468 -54.26507074 52.90589817 -52.421875 50.61328125 C-50.87329099 48.856234 -49.22261245 47.39087028 -47.4375 45.875 C-43.24732901 42.31058234 -39.40076572 38.463224 -35.56420898 34.52685547 C-32.87674327 31.79243318 -30.12161997 29.21162848 -27.2109375 26.71484375 C-21.54957062 21.82009224 -16.40258349 16.4134117 -11.18359375 11.05664062 C-10.41402344 10.27611328 -9.64445312 9.49558594 -8.8515625 8.69140625 C-8.15885254 7.98185791 -7.46614258 7.27230957 -6.75244141 6.54125977 C-5 5 -5 5 -3 5 C-2.67 4.01 -2.34 3.02 -2 2 C-1.34 2 -0.68 2 0 2 C0 1.34 0 0.68 0 0 Z " fill="#DB5E6A" transform="translate(73,351)"/>
<path d="M0 0 C1.8125 1.1875 1.8125 1.1875 3 3 C3.37890625 5.28125 3.37890625 5.28125 3 8 C0.8828125 10.67578125 0.8828125 10.67578125 -1.875 13.3125 C-2.77992187 14.19550781 -3.68484375 15.07851563 -4.6171875 15.98828125 C-7 18 -7 18 -9 18 C-9.66 19.32 -10.32 20.64 -11 22 C-11.66 22 -12.32 22 -13 22 C-13 22.66 -13 23.32 -13 24 C-14.43359375 25.41015625 -14.43359375 25.41015625 -16.4375 27.0625 C-21.22201592 31.12594526 -25.60234768 35.5259406 -30 40 C-31.66666667 41.66666667 -33.33333333 43.33333333 -35 45 C-35.59296875 45.60457031 -36.1859375 46.20914063 -36.796875 46.83203125 C-40.03993031 50.11908149 -43.30112427 53.31200066 -46.8125 56.3125 C-50.8856616 59.79452682 -54.61414867 63.57883256 -58.31958008 67.44458008 C-59.51024689 68.66602342 -60.75152965 69.83770353 -62 71 C-62.66 71 -63.32 71 -64 71 C-64.33 71.99 -64.66 72.98 -65 74 C-68.06533164 75.53266582 -71.26754272 75.10276471 -74.625 75.0625 C-75.33140625 75.05798828 -76.0378125 75.05347656 -76.765625 75.04882812 C-78.51045275 75.03703875 -80.255237 75.01910324 -82 75 C-81.0919838 73.86800647 -80.17316174 72.74467637 -79.25 71.625 C-78.73953125 70.99851562 -78.2290625 70.37203125 -77.703125 69.7265625 C-76 68 -76 68 -73.859375 66.9609375 C-71.64209631 66.08895682 -71.64209631 66.08895682 -71 63 C-69.328125 61.3515625 -69.328125 61.3515625 -67.25 59.625 C-63.3526422 56.31605324 -59.75261426 52.82532096 -56.2109375 49.13671875 C-55.58445312 48.49347656 -54.95796875 47.85023438 -54.3125 47.1875 C-53.73113281 46.58292969 -53.14976563 45.97835937 -52.55078125 45.35546875 C-51 44 -51 44 -49 44 C-48.731875 43.401875 -48.46375 42.80375 -48.1875 42.1875 C-47.00082594 40.00152146 -45.90400887 38.58667406 -44 37 C-43.34 37 -42.68 37 -42 37 C-42 36.34 -42 35.68 -42 35 C-40.53529287 33.76831446 -39.06639122 32.54103997 -37.5703125 31.34765625 C-35.83099856 29.94225147 -35.83099856 29.94225147 -34.125 27.625 C-30.60462222 23.27629804 -26.22232506 19.86675305 -21.94921875 16.27734375 C-17.7796748 12.72311114 -14.12690841 9.02780147 -10.640625 4.796875 C-7.38558047 1.23182623 -4.96193432 -0.76337451 0 0 Z " fill="#DB5E6A" transform="translate(112,385)"/>
<path d="M0 0 C0.66 0.99 1.32 1.98 2 3 C1.32788889 5.83747778 0.57330768 8.44554976 -0.375 11.1875 C-0.6225 11.93708984 -0.87 12.68667969 -1.125 13.45898438 C-1.73806985 15.30998373 -2.36749619 17.15555098 -3 19 C-3.33 19 -3.66 19 -4 19 C-4.53699151 11.88486245 -2.69707634 6.55004254 0 0 Z " fill="#D8505D" transform="translate(220,195)"/>
</svg>
