<svg width="429" height="477" viewBox="0 0 429 477" fill="none" xmlns="http://www.w3.org/2000/svg">
<path d="M313.401 208.325C315.101 208.325 316.401 207.025 316.501 205.425V205.325V204.825C316.501 203.125 315.101 201.725 313.401 201.825C311.701 201.825 310.401 203.225 310.401 204.825V205.325C310.301 207.025 311.701 208.325 313.401 208.325ZM311.801 203.025H313.701C314.401 202.925 315.001 203.425 315.101 204.125C315.101 204.225 315.101 204.225 315.101 204.325C315.201 204.825 314.801 205.425 314.301 205.625L315.201 207.225H314.101L313.301 205.725H312.701V207.225H311.701L311.801 203.025ZM399.001 97.825L243.301 7.725C225.101 -2.575 202.901 -2.575 184.701 7.725L29.3007 97.825C11.3007 108.325 0.100664 127.525 0.00066409 148.425V327.925C-0.0993359 348.825 11.1007 368.225 29.3007 378.525L184.601 468.625C202.701 479.225 225.101 479.225 243.201 468.625L398.901 378.825C416.901 368.325 428.101 349.125 428.201 328.225V148.425C428.401 127.425 417.201 108.125 399.001 97.825ZM313.401 200.925C315.701 200.825 317.601 202.625 317.701 204.925C317.801 207.225 316.001 209.125 313.701 209.225C311.401 209.325 309.501 207.525 309.401 205.225V205.125C309.301 202.825 311.101 201.025 313.401 200.925ZM273.401 133.125H303.701V138.425H271.601L273.401 133.125ZM269.901 143.225H303.701V148.525H268.101L269.901 143.225ZM293.101 183.525V188.825H277.301V183.525H293.101ZM277.301 178.725V173.425H293.201V178.725H277.301ZM303.701 193.625V198.925H277.301V193.625H303.701ZM266.401 153.325H293.101V158.625H264.601L266.401 153.325ZM258.301 158.525H229.801V153.225H256.501L258.301 158.525ZM219.101 133.125H249.401L251.201 138.425H219.101V133.125ZM219.101 143.225H252.901L254.701 148.525H219.101V143.225ZM229.701 178.725V173.425H245.601V178.725H229.701ZM245.601 183.525V188.825H229.701V183.525H245.601ZM219.101 193.625H245.501V198.925H219.101V193.625ZM219.101 203.725H245.501V209.025H219.101V203.725ZM166.301 178.725V173.425H207.701C209.501 174.925 211.001 176.725 212.101 178.725H166.301ZM182.101 183.525V188.825H166.301V183.525H182.101ZM212.101 163.425C210.901 165.425 209.501 167.225 207.701 168.725H166.301V163.425H212.101ZM166.301 158.525V153.225H182.201V158.525H166.301ZM197.001 183.525H214.101C214.601 185.225 214.801 187.025 214.801 188.825H197.001V183.525ZM214.101 158.525H197.001V153.225H214.801C214.801 155.125 214.601 156.825 214.101 158.525ZM155.701 133.125H194.601C199.601 133.125 204.501 135.025 208.201 138.425H155.701V133.125ZM155.701 143.225H212.101C213.101 144.925 213.801 146.625 214.201 148.525H155.701V143.225ZM155.701 193.625H214.201C213.701 195.525 213.001 197.225 212.101 198.925H155.701V193.625ZM113.401 133.125H150.401V138.425H113.401V133.125ZM113.401 143.225H150.401V148.525H113.401V143.225ZM124.001 178.725V173.425H139.901V178.725H124.001ZM139.901 183.525V188.825H124.001V183.525H139.901ZM124.001 168.625V163.325H139.901V168.625H124.001ZM124.001 158.525V153.225H139.901V158.525H124.001ZM113.401 193.625H150.401V198.925H113.401V193.625ZM113.401 203.725H150.401V209.025H113.401V203.725ZM128.101 287.225L97.6007 326.725H128.101V340.925H71.1007V332.925L103.101 291.925H74.4007V277.425H128.101V287.225ZM152.801 342.025H143.701L170.201 250.925H178.901L152.801 342.025ZM155.701 209.025V203.725H208.201C204.501 207.125 199.601 209.025 194.601 209.025H155.701ZM260.301 330.425C252.301 339.125 240.901 343.925 229.101 343.525C217.201 343.825 205.701 339.125 197.501 330.425C189.101 321.725 185.201 310.425 185.201 296.325C185.201 282.225 189.201 270.525 197.501 262.225C205.601 253.425 217.201 248.725 229.101 249.125C240.901 248.725 252.301 253.525 260.301 262.225C268.701 271.625 273.101 283.825 272.601 296.325C272.601 310.425 268.601 322.025 260.301 330.425ZM257.901 198.925L256.001 193.625H266.801L264.901 198.925H257.901ZM263.201 203.725L261.401 209.025L259.601 203.725H263.201ZM254.301 188.825L252.401 183.525H270.301L268.401 188.825H254.301ZM272.001 178.725H250.801L248.901 173.425H273.801L272.001 178.725ZM247.301 168.625L245.601 163.725V168.625H229.701V163.325H259.901L261.401 167.625L262.901 163.325H293.101V168.625H277.301V163.725L275.601 168.625H247.301ZM277.301 203.725H303.701V209.025H277.301V203.725ZM347.401 336.225C340.301 341.225 331.801 343.825 323.101 343.525C310.401 343.525 300.601 340.625 294.401 334.825C288.001 329.225 284.301 321.125 284.201 312.625H295.801C296.101 318.725 299.201 324.325 304.201 327.925C309.701 331.225 316.001 332.825 322.401 332.625C328.101 332.825 333.801 331.525 338.701 328.625C342.501 326.125 344.901 321.925 344.901 317.325C345.201 312.725 342.601 308.325 338.401 306.425C331.301 303.425 323.801 301.125 316.301 299.525C308.201 298.225 300.501 295.125 293.801 290.425C289.201 286.625 286.601 280.825 286.901 274.825C286.801 267.725 290.001 261.025 295.601 256.625C302.401 251.525 310.701 249.025 319.201 249.325C328.101 249.025 336.901 251.525 344.301 256.625C350.601 261.525 354.401 269.025 354.501 276.925H342.901C341.801 266.025 334.201 260.225 320.401 260.225C314.901 259.825 309.501 261.125 304.801 263.825C301.301 266.025 299.301 269.925 299.401 274.025C299.201 277.525 300.901 280.825 303.801 282.725C309.101 285.325 314.701 287.225 320.501 288.125C327.001 289.525 333.501 291.325 339.701 293.525C344.301 295.225 348.601 298.025 352.001 301.525C355.501 305.725 357.301 311.025 357.101 316.425C357.001 324.225 353.501 331.525 347.401 336.225ZM229.001 259.225C220.401 259.025 212.201 262.625 206.501 269.025C200.701 275.525 197.801 284.625 197.801 296.225C197.801 307.825 200.701 316.925 206.501 323.425C212.001 329.825 220.201 333.425 228.601 333.225C237.201 333.425 245.401 329.825 251.101 323.425C256.901 316.925 259.801 307.825 259.801 296.225C259.801 284.625 256.901 275.525 251.101 269.025C245.701 262.625 237.501 259.025 229.001 259.225ZM314.101 204.525V204.225C314.101 203.925 313.901 203.825 313.601 203.825H312.801V205.025H313.601C313.901 205.025 314.101 204.825 314.101 204.525Z" fill="#008CDB"/>
</svg>
